<svg width="62" height="20" viewBox="0 0 62 20" fill="none" xmlns="http://www.w3.org/2000/svg">
<path d="M0 7.76053C0 3.48854 3.59202 0 7.87879 0C10.2439 0 11.929 0.931264 13.2003 2.14339L11.7073 3.63636C10.8056 2.77901 9.56393 2.1286 7.87879 2.1286C4.75979 2.1286 2.32077 4.64154 2.32077 7.76053C2.32077 10.8795 4.75979 13.3925 7.87879 13.3925C9.90392 13.3925 11.0569 12.5795 11.796 11.8404C12.4021 11.2343 12.8012 10.3622 12.949 9.1796H7.87879V7.06578H15.0185C15.0924 7.45011 15.1367 7.89357 15.1367 8.39616C15.1367 9.99261 14.7081 11.9586 13.3038 13.3481C11.9438 14.7672 10.1996 15.5211 7.89357 15.5211C3.59202 15.5063 0 12.0325 0 7.76053Z" fill="#4285F4"/>
<path d="M20.8871 5.52832C18.1228 5.52832 15.876 7.62736 15.876 10.5246C15.876 13.4071 18.1228 15.5209 20.8871 15.5209C23.6513 15.5209 25.8982 13.4071 25.8982 10.5246C25.8982 7.62736 23.6513 5.52832 20.8871 5.52832ZM20.8871 13.5401C19.3793 13.5401 18.0637 12.2985 18.0637 10.5098C18.0637 8.70644 19.3645 7.47954 20.8871 7.47954C22.3948 7.47954 23.7104 8.70644 23.7104 10.5098C23.7104 12.2985 22.3948 13.5401 20.8871 13.5401Z" fill="#EA4335"/>
<path d="M31.8255 5.52832C29.0613 5.52832 26.8145 7.62736 26.8145 10.5246C26.8145 13.4071 29.0613 15.5209 31.8255 15.5209C34.5898 15.5209 36.8366 13.4071 36.8366 10.5246C36.8366 7.62736 34.5898 5.52832 31.8255 5.52832ZM31.8255 13.5401C30.3178 13.5401 29.0022 12.2985 29.0022 10.5098C29.0022 8.70644 30.303 7.47954 31.8255 7.47954C33.3481 7.47954 34.6489 8.70644 34.6489 10.5098C34.6489 12.2985 33.3333 13.5401 31.8255 13.5401Z" fill="#FBBC05"/>
<path d="M45.2474 5.82409V6.6371H45.1735C44.6857 6.04582 43.7396 5.51367 42.5423 5.51367C40.0441 5.51367 37.7529 7.7014 37.7529 10.5248C37.7529 13.3186 40.0441 15.5063 42.5423 15.5063C43.7396 15.5063 44.6857 14.9741 45.1735 14.3681H45.2474V15.0924C45.2474 16.9993 44.2274 18.0192 42.5866 18.0192C41.2415 18.0192 40.4137 17.0584 40.0737 16.2454L38.1668 17.0436C38.7138 18.374 40.1772 20 42.6014 20C45.1735 20 47.3464 18.4922 47.3464 14.7967V5.82409H45.2474ZM42.7344 13.5403C41.2267 13.5403 39.9554 12.269 39.9554 10.5248C39.9554 8.76571 41.2267 7.47967 42.7344 7.47967C44.2274 7.47967 45.3952 8.76571 45.3952 10.5248C45.41 12.2838 44.2274 13.5403 42.7344 13.5403Z" fill="#4285F4"/>
<path d="M48.8545 0.532227H51.0422V15.2107H48.8545V0.532227Z" fill="#34A853"/>
<path d="M57.0584 13.5401C55.935 13.5401 55.1515 13.0228 54.6342 12.0324L61.3156 9.26816L61.0939 8.70644C60.68 7.58301 59.4087 5.52832 56.8219 5.52832C54.2498 5.52832 52.1064 7.55345 52.1064 10.5246C52.1064 13.3184 54.2203 15.5209 57.0584 15.5209C59.3496 15.5209 60.6652 14.1166 61.2269 13.3036L59.527 12.1654C58.9505 12.9932 58.1818 13.5401 57.0584 13.5401ZM56.8958 7.44998C57.7679 7.44998 58.507 7.87865 58.7436 8.51428L54.2794 10.362C54.2203 8.44037 55.7724 7.44998 56.8958 7.44998Z" fill="#EA4335"/>
</svg>
