<svg width="53" height="20" viewBox="0 0 53 20" fill="none" xmlns="http://www.w3.org/2000/svg">
<path d="M5.18093 10.8355L2.18535 17.5676H0L3.29024 10.3685C1.74334 9.5823 0.712088 8.15725 0.712088 5.52826C0.712088 1.84276 3.04471 0 5.81933 0H8.643V17.5676H6.75238V10.8355H5.18093ZM6.75238 1.59706H5.74562C4.2233 1.59706 2.75004 2.60441 2.75004 5.52826C2.75004 8.35377 4.10054 9.26285 5.74562 9.26285H6.75238V1.59706Z" fill="#FF0000"/>
<path d="M17.7527 5.18415V17.5675H15.8621V12.0147H13.0138V17.5675H11.0986V5.18415H13.0138V10.4421H15.8621V5.18415H17.7527ZM27.5989 20H25.8801V17.5675H20.5764V20H18.8576V15.995H19.6189C20.7483 13.366 20.8711 9.53304 20.8711 6.24067V5.18415H26.6168V15.995H27.5989V20ZM24.7261 6.73212H22.5899V6.95322C22.5899 9.55763 22.4671 13.366 21.4359 15.995H24.7261V6.73212ZM32.8781 17.7395C30.3245 17.7395 28.753 15.7002 28.753 11.8919C28.753 7.91148 29.858 5.01221 32.4853 5.01221C34.5478 5.01221 35.8983 6.5601 35.8983 10.7617V11.8182H30.7418C30.7418 14.6191 31.5276 16.0934 33.0499 16.0934C34.1303 16.0934 34.9897 15.602 35.4808 15.258L35.9228 16.7321C35.0505 17.402 33.9775 17.757 32.8781 17.7395ZM30.7664 10.2456H33.9339C33.9339 8.13258 33.5901 6.58469 32.4853 6.58469C31.3066 6.58469 30.8892 8.03432 30.7664 10.2456ZM39.7778 11.4005V17.5675H37.8625V5.18415H39.7778V10.909L42.7487 5.18415H44.6885L41.6193 11.0073L45.1305 17.5675H43.0434L39.7778 11.4005ZM45.376 11.376C45.376 7.49378 46.8739 5.01221 49.7713 5.01221C50.8761 5.01221 51.5146 5.30707 52.0548 5.65102L51.7847 7.46919C51.269 7.0269 50.5324 6.60927 49.7467 6.60927C48.3717 6.60927 47.3895 8.15717 47.3895 11.2776C47.3895 14.3734 48.1261 16.1424 49.673 16.1424C50.4384 16.1527 51.181 15.8817 51.7601 15.3807L52.202 16.8059C51.4914 17.4319 50.5703 17.7654 49.6239 17.7395C46.972 17.7395 45.376 15.602 45.376 11.376Z" fill="white"/>
</svg>
