<svg width="24" height="24" viewBox="0 0 24 24" fill="none" xmlns="http://www.w3.org/2000/svg">
<path fill-rule="evenodd" clip-rule="evenodd" d="M14.6999 6.40147H18.4797C18.7923 6.40147 19.0481 6.65724 19.0481 6.96985C19.0481 7.28247 18.7923 7.53824 18.4797 7.53824H5.52053C5.20792 7.53824 4.95215 7.28247 4.95215 6.96985C4.95215 6.65724 5.20792 6.40147 5.52053 6.40147H9.30028V4.55422C9.30028 4.24161 9.55606 3.98584 9.86867 3.98584H14.1315C14.4442 3.98584 14.6999 4.24161 14.6999 4.55422V6.40147ZM10.4371 6.40147H13.5347V5.12261H10.4371V6.40147ZM6.91301 17.826L6.51514 7.53824H17.4565L17.0871 17.826C17.0302 19.048 16.1492 20.0143 15.0693 20.0143H8.93077C7.85084 20.0143 6.96984 19.048 6.91301 17.826ZM9.10128 9.556L9.44231 17.0018C9.44231 17.3144 9.69809 17.5702 10.0107 17.5418L10.3517 17.5134C10.6643 17.5134 10.8917 17.2576 10.8917 16.945L10.5507 9.49916C10.5507 9.18655 10.2949 8.93078 9.98228 8.9592L9.64125 8.98762C9.32864 8.98762 9.07286 9.24339 9.10128 9.556ZM13.1936 16.945C13.1936 17.2292 13.421 17.485 13.7336 17.5134L14.0746 17.5418C14.3588 17.5418 14.6146 17.3144 14.643 17.0018L14.9841 9.556C14.9841 9.27181 14.7567 9.01604 14.4441 8.98762L14.1031 8.9592C13.8189 8.9592 13.5631 9.18655 13.5347 9.49916L13.1936 16.945Z" fill="#020818"/>
</svg>
