<svg width="24" height="24" viewBox="0 0 24 24" fill="none" xmlns="http://www.w3.org/2000/svg">
<path d="M6.03183 4H18.1872C18.3217 3.99998 18.4544 4.0318 18.5743 4.09287C18.6942 4.15393 18.798 4.2425 18.8771 4.35134L22.1372 8.83349C22.1952 8.91324 22.2237 9.01061 22.2179 9.10903C22.2122 9.20745 22.1725 9.30084 22.1057 9.37329L12.4225 19.8632C12.3826 19.9063 12.3341 19.9408 12.2803 19.9643C12.2264 19.9878 12.1683 20 12.1095 20C12.0507 20 11.9926 19.9878 11.9387 19.9643C11.8849 19.9408 11.8365 19.9063 11.7965 19.8632L2.11336 9.37415C2.04629 9.30163 2.00648 9.20808 2.00072 9.10947C1.99497 9.01086 2.02363 8.91331 2.08181 8.83349L5.34194 4.35134C5.42106 4.2425 5.52481 4.15393 5.64472 4.09287C5.76462 4.0318 5.89727 3.99998 6.03183 4Z" fill="black"/>
</svg>
