<svg width="24" height="24" viewBox="0 0 24 24" fill="none" xmlns="http://www.w3.org/2000/svg">
<path fill-rule="evenodd" clip-rule="evenodd" d="M4 11C4 12.1046 3.10457 13 2 13C0.895431 13 0 12.1046 0 11C0 9.89543 0.895431 9 2 9C3.10457 9 4 9.89543 4 11ZM14 11C14 12.1046 13.1046 13 12 13C10.8954 13 10 12.1046 10 11C10 9.89543 10.8954 9 12 9C13.1046 9 14 9.89543 14 11ZM22 13C23.1046 13 24 12.1046 24 11C24 9.89543 23.1046 9 22 9C20.8954 9 20 9.89543 20 11C20 12.1046 20.8954 13 22 13Z" fill="#020818"/>
</svg>
