<svg width="24" height="24" viewBox="0 0 24 24" fill="none" xmlns="http://www.w3.org/2000/svg">
<path d="M19.1168 4H4.88321C4.649 4.00009 4.42441 4.09318 4.25879 4.25879C4.09318 4.42441 4.00009 4.649 4 4.88321V19.1168C4.00009 19.351 4.09318 19.5756 4.25879 19.7412C4.42441 19.9068 4.649 19.9999 4.88321 20H12V13.7143H10.0875V11.4286H12V9.60714C12 7.54071 13.4332 6.41571 15.2793 6.41571C16.1625 6.41571 17.1125 6.48214 17.3332 6.51143V8.66964H15.8625C14.8582 8.66964 14.6668 9.14464 14.6668 9.84464V11.4286H17.0596L16.7471 13.7143H14.6668V20H19.1168C19.351 19.9999 19.5756 19.9068 19.7412 19.7412C19.9068 19.5756 19.9999 19.351 20 19.1168V4.88321C19.9999 4.649 19.9068 4.42441 19.7412 4.25879C19.5756 4.09318 19.351 4.00009 19.1168 4Z" fill="#020818"/>
</svg>
