<svg width="24" height="24" viewBox="0 0 24 24" fill="none" xmlns="http://www.w3.org/2000/svg">
<path fill-rule="evenodd" clip-rule="evenodd" d="M15.2723 8.75523L14.1337 7.61703L8.42233 13.3264C7.46737 14.2626 7.46737 15.8047 8.42233 16.7409C9.35893 17.6772 10.9016 17.6772 11.8565 16.7409L18.7065 9.89342C20.2675 8.31464 20.2675 5.76288 18.6882 4.18409C17.1088 2.6053 14.5561 2.6053 12.9768 4.18409L5.79618 11.3804L5.77782 11.3988C3.57406 13.6017 3.57406 17.1632 5.77782 19.3478C7.98158 21.5507 11.5443 21.5507 13.7481 19.3478C13.7481 19.3478 13.7481 19.3294 13.7664 19.3294L18.6698 14.4278L17.5312 13.2896L12.6095 18.1912L12.5911 18.2096C11.0301 19.77 8.47742 19.77 6.91643 18.2096C5.35543 16.6492 5.35543 14.0974 6.91643 12.537L6.93479 12.5186L14.1337 5.32228C15.0703 4.38603 16.613 4.38603 17.5679 5.32228C18.5045 6.25854 18.5045 7.80061 17.5679 8.73687L10.6995 15.6028C10.3873 15.9148 9.87314 15.9148 9.56094 15.6028C9.24874 15.2907 9.24874 14.7766 9.56094 14.4646L15.2723 8.75523Z" fill="#020818"/>
</svg>
