<svg width="24" height="24" viewBox="0 0 24 24" fill="none" xmlns="http://www.w3.org/2000/svg">
<path d="M12 3C9.87904 3.00223 7.84568 3.74797 6.34594 5.07364C4.84619 6.3993 4.00253 8.19664 4 10.0714C4 16.1221 11.2727 20.6924 11.5824 20.8838C11.7048 20.9595 11.8506 21 12 21C12.1494 21 12.2952 20.9595 12.4176 20.8838C12.7273 20.6924 20 16.1221 20 10.0714C19.9975 8.19664 19.1538 6.3993 17.6541 5.07364C16.1543 3.74797 14.121 3.00223 12 3ZM12.0005 7.50023C12.5759 7.50023 13.1384 7.65104 13.6167 7.93359C14.0951 8.21615 14.468 8.61775 14.6882 9.08761C14.9084 9.55748 14.966 10.0745 14.8537 10.5733C14.7415 11.0721 14.4644 11.5303 14.0576 11.8899C13.6507 12.2495 13.1324 12.4944 12.5681 12.5937C12.0038 12.6929 11.4189 12.642 10.8873 12.4473C10.3557 12.2527 9.90138 11.9231 9.58173 11.5003C9.26207 11.0774 9.09145 10.5802 9.09145 10.0717C9.09145 9.38967 9.39795 8.73562 9.94351 8.25338C10.4891 7.77115 11.229 7.50023 12.0005 7.50023Z" fill="#020818"/>
</svg>
