<svg width="24" height="24" viewBox="0 0 24 24" fill="none" xmlns="http://www.w3.org/2000/svg">
<path fill-rule="evenodd" clip-rule="evenodd" d="M18.0981 4H5.90186C4.85143 4 4 4.84925 4 5.8975V18.1025C4 19.1503 4.85143 20 5.90186 20H18.0981C19.1486 20 20 19.1503 20 18.1025V5.8975C20 4.84925 19.1486 4 18.0981 4ZM12.0185 8.94887C13.7179 8.94887 15.0956 10.3235 15.0956 12.0186C15.0956 13.714 13.7179 15.0882 12.0185 15.0882C10.3196 15.0882 8.94184 13.714 8.94184 12.0186C8.94184 10.3235 10.3196 8.94887 12.0185 8.94887ZM18.5 17.9999C18.5 18.2757 18.2762 18.5001 17.9999 18.5001H6.00001C5.72377 18.5001 5.49989 18.2757 5.49989 17.9999V10.4998H7.49995C7.23941 10.8747 7.15126 11.5743 7.15126 12.0185C7.15126 14.6959 9.33504 16.8744 12.0185 16.8744C14.7024 16.8744 16.8862 14.6959 16.8862 12.0185C16.8862 11.5743 16.8229 10.8856 16.5 10.4998H18.5V17.9999Z" fill="#020818"/>
</svg>
