<svg width="24" height="24" viewBox="0 0 24 24" fill="none" xmlns="http://www.w3.org/2000/svg">
<path fill-rule="evenodd" clip-rule="evenodd" d="M9.22136 5.56942C6.73806 6.64148 5 9.11229 5 11.989C5 15.849 8.1291 18.9781 11.989 18.9781C15.849 18.9781 18.9781 15.849 18.9781 11.989C18.9781 8.1291 15.849 5.00001 11.9891 5C11.7834 5 11.5862 5.08169 11.4408 5.22709C11.2954 5.3725 11.2137 5.56971 11.2137 5.77534C11.2137 5.98098 11.2954 6.17819 11.4408 6.32359C11.5862 6.469 11.7834 6.55069 11.9891 6.55069C12.5413 6.55069 12.9891 6.9984 12.9891 7.55068C12.9891 8.10297 12.5413 8.55069 11.9891 8.55068C11.253 8.55068 10.5471 8.25828 10.0266 7.73781C9.50612 7.21733 9.21372 6.51141 9.21372 5.77534C9.21372 5.70639 9.21629 5.63771 9.22136 5.56942ZM3 11.989C3 7.02453 7.02453 3 11.989 3C16.9536 3 20.9781 7.02453 20.9781 11.989C20.9781 16.9536 16.9536 20.9781 11.989 20.9781C7.02453 20.9781 3 16.9536 3 11.989ZM8.32605 10.2137C8.32605 9.66143 8.77376 9.21372 9.32605 9.21372H9.33405C9.88633 9.21372 10.334 9.66143 10.334 10.2137C10.334 10.766 9.88633 11.2137 9.33405 11.2137H9.32605C8.77376 11.2137 8.32605 10.766 8.32605 10.2137ZM14.652 9.21372C14.0997 9.21372 13.652 9.66143 13.652 10.2137C13.652 10.766 14.0997 11.2137 14.652 11.2137H14.66C15.2123 11.2137 15.66 10.766 15.66 10.2137C15.66 9.66143 15.2123 9.21372 14.66 9.21372H14.652ZM9.06997 13.9377C9.46446 13.5512 10.0976 13.5576 10.4841 13.9521C10.6803 14.1523 10.9144 14.3114 11.1728 14.42C11.4312 14.5285 11.7087 14.5845 11.989 14.5845C12.2693 14.5845 12.5468 14.5285 12.8052 14.42C13.0636 14.3114 13.2977 14.1523 13.4939 13.9521C13.8804 13.5576 14.5135 13.5512 14.908 13.9377C15.3025 14.3242 15.309 14.9573 14.9225 15.3518C14.5401 15.7421 14.0837 16.0521 13.58 16.2638C13.0763 16.4755 12.5354 16.5845 11.989 16.5845C11.4426 16.5845 10.9017 16.4755 10.398 16.2638C9.89433 16.0521 9.43792 15.7421 9.05554 15.3518C8.66902 14.9573 8.67548 14.3242 9.06997 13.9377Z" fill="#020818"/>
</svg>
