<svg width="20" height="20" viewBox="0 0 20 20" fill="none" xmlns="http://www.w3.org/2000/svg">
<path d="M10.0007 2.5C8.23319 2.50186 6.53872 3.12331 5.28893 4.22803C4.03914 5.33275 3.33609 6.83054 3.33398 8.39284C3.33398 13.435 9.39459 17.2436 9.65262 17.4032C9.75468 17.4662 9.87616 17.5 10.0007 17.5C10.1251 17.5 10.2466 17.4662 10.3487 17.4032C10.6067 17.2436 16.6673 13.435 16.6673 8.39284C16.6652 6.83054 15.9622 5.33275 14.7124 4.22803C13.4626 3.12331 11.7681 2.50186 10.0007 2.5ZM10.0011 6.25019C10.4806 6.25019 10.9493 6.37587 11.3479 6.61133C11.7466 6.84679 12.0573 7.18146 12.2408 7.57301C12.4243 7.96457 12.4723 8.39542 12.3788 8.8111C12.2852 9.22677 12.0543 9.60859 11.7153 9.90827C11.3763 10.208 10.9443 10.412 10.4741 10.4947C10.0038 10.5774 9.51636 10.535 9.07339 10.3728C8.63042 10.2106 8.2518 9.93594 7.98542 9.58355C7.71904 9.23116 7.57686 8.81686 7.57686 8.39305C7.57686 7.82473 7.83227 7.27968 8.28691 6.87782C8.74154 6.47596 9.35816 6.25019 10.0011 6.25019Z" fill="#95A0AF"/>
</svg>
