<svg width="24" height="24" viewBox="0 0 24 24" fill="none" xmlns="http://www.w3.org/2000/svg">
<path d="M21.0017 19.0017L15.8477 13.8477C16.8005 12.3996 17.1821 10.6495 16.9187 8.93613C16.6552 7.22281 15.7654 5.66819 14.4216 4.57324C13.0777 3.4783 11.3754 2.92094 9.64416 3.00906C7.91294 3.09718 6.276 3.82452 5.05026 5.05026C3.82452 6.276 3.09718 7.91294 3.00906 9.64416C2.92094 11.3754 3.4783 13.0777 4.57324 14.4216C5.66819 15.7654 7.22281 16.6552 8.93613 16.9187C10.6495 17.1821 12.3996 16.8005 13.8477 15.8477L19.0017 21.0017L21.0017 19.0017ZM5.00169 10.0017C5.00169 7.24469 7.24469 5.00169 10.0017 5.00169C12.7587 5.00169 15.0017 7.24469 15.0017 10.0017C15.0017 12.7587 12.7587 15.0017 10.0017 15.0017C7.24469 15.0017 5.00169 12.7587 5.00169 10.0017Z" fill="black"/>
</svg>
