<svg width="24" height="24" viewBox="0 0 24 24" fill="none" xmlns="http://www.w3.org/2000/svg">
<path fill-rule="evenodd" clip-rule="evenodd" d="M2.28816 11.4424C4.23978 10.3538 6.41832 9.44519 8.45383 8.53195C11.9557 7.03612 15.4715 5.56623 19.0228 4.19777C19.7136 3.9646 20.9552 3.73664 21.0769 4.77358C21.0103 6.24137 20.7361 7.70056 20.548 9.15975C20.0706 12.3686 19.5187 15.5665 18.9807 18.7649C18.7953 19.8301 17.4775 20.3817 16.6343 19.7C14.6078 18.3137 12.5658 16.9411 10.5652 15.5227C9.90976 14.8483 10.5176 13.88 11.1027 13.3984C12.7718 11.7325 14.5419 10.3174 16.1237 8.56562C16.5504 7.52205 15.2897 8.40148 14.8738 8.671C12.5889 10.2656 10.3598 11.9575 7.95076 13.359C6.72021 14.0449 5.28599 13.4587 4.056 13.0759C2.95317 12.6135 1.33711 12.1476 2.28802 11.4426L2.28816 11.4424Z" fill="#020818"/>
</svg>
