<svg width="24" height="24" viewBox="0 0 24 24" fill="none" xmlns="http://www.w3.org/2000/svg">
<path d="M14.9974 11.9901C14.9974 13.5789 13.653 14.8669 11.9946 14.8669C10.3362 14.8669 8.99177 13.5789 8.99177 11.9901C8.99177 10.4012 10.3362 9.1132 11.9946 9.1132C13.653 9.11318 14.9974 10.4012 14.9974 11.9901ZM12 6C10.2829 6.00762 8.5031 6.42563 6.81827 7.22595C5.5673 7.84465 4.34817 8.71755 3.2899 9.79497C2.77013 10.345 2.10718 11.1413 2 11.991C2.01267 12.727 2.80217 13.6355 3.2899 14.1871C4.28228 15.2222 5.46967 16.0707 6.81827 16.7567C8.38945 17.5192 10.1285 17.9582 12 17.9827C13.7187 17.9749 15.4981 17.5521 17.1811 16.7567C18.4321 16.138 19.6518 15.2645 20.7101 14.1871C21.2299 13.6371 21.8928 12.8407 22 11.991C21.9873 11.255 21.1978 10.3465 20.7101 9.79493C19.7177 8.75983 18.5297 7.91195 17.1811 7.22592C15.6107 6.46398 13.8674 6.02798 12 6ZM11.9987 7.48747C14.6007 7.48747 16.71 9.50403 16.71 11.9917C16.71 14.4793 14.6007 16.4958 11.9987 16.4958C9.39675 16.4958 7.28748 14.4792 7.28748 11.9917C7.28748 9.50403 9.39675 7.48747 11.9987 7.48747Z" fill="#020818"/>
</svg>
