<svg width="24" height="24" viewBox="0 0 24 24" fill="none" xmlns="http://www.w3.org/2000/svg">
<path fill-rule="evenodd" clip-rule="evenodd" d="M20.1086 7.67763C20.2282 7.27902 20.1086 7 19.5505 7H17.6904C17.212 7 16.9995 7.25245 16.8799 7.53147C16.8799 7.53147 15.9365 9.84339 14.5945 11.3315C14.1561 11.77 13.9701 11.9029 13.7309 11.9029C13.6113 11.9029 13.4386 11.77 13.4386 11.3714V7.67763C13.4386 7.1993 13.3057 7 12.9071 7H9.98399C9.69168 7 9.50566 7.22588 9.50566 7.42518C9.50566 7.87693 10.17 7.98323 10.2497 9.23219V11.9693C10.2497 12.5672 10.1434 12.6735 9.90427 12.6735C9.27979 12.6735 7.73851 10.3616 6.835 7.7042C6.64899 7.21259 6.47626 7 5.99793 7H4.13777C3.60629 7 3.5 7.25245 3.5 7.53147C3.5 8.02309 4.12448 10.4679 6.4364 13.6966C7.97767 15.9022 10.1434 17.098 12.1099 17.098C13.2924 17.098 13.4386 16.8323 13.4386 16.3805V14.7064C13.4386 14.1749 13.5449 14.0686 13.9302 14.0686C14.2092 14.0686 14.6743 14.2015 15.7771 15.2644C17.0393 16.5267 17.2519 17.098 17.9561 17.098H19.8163C20.3477 17.098 20.6135 16.8323 20.454 16.3141C20.2813 15.7959 19.6834 15.0386 18.8862 14.135C18.4477 13.6169 17.7967 13.0721 17.6107 12.7931C17.3316 12.4343 17.4114 12.2749 17.6107 11.9693C17.6107 11.956 19.8827 8.76715 20.1086 7.67763Z" fill="#020818"/>
</svg>
