<svg width="24" height="24" viewBox="0 0 24 24" fill="none" xmlns="http://www.w3.org/2000/svg">
<path fill-rule="evenodd" clip-rule="evenodd" d="M11 4C10.4477 4 10 4.44772 10 5V13C10 13.5523 10.4477 14 11 14H12.125C12.6773 14 13.125 13.5523 13.125 13V5C13.125 4.44772 12.6773 4 12.125 4H11ZM11.5571 16.875C10.519 16.875 10 17.3906 10 18.4218C10 18.9209 10.1332 19.3076 10.4028 19.5848C10.6709 19.8606 11.0551 20 11.5571 20C12.0591 20 12.4448 19.8576 12.716 19.5743C12.9887 19.2911 13.125 18.9074 13.125 18.4218C13.125 17.9302 12.9902 17.5495 12.7222 17.2797C12.4526 17.0099 12.0653 16.875 11.5571 16.875Z" fill="#020818"/>
</svg>
