<svg width="24" height="24" viewBox="0 0 24 24" fill="none" xmlns="http://www.w3.org/2000/svg">
<path fill-rule="evenodd" clip-rule="evenodd" d="M9.34548 7.77284C9.18139 7.40964 9.00861 7.40238 8.85245 7.39598C8.7248 7.39054 8.57861 7.39086 8.43263 7.39086C8.28654 7.39086 8.04914 7.44549 7.84839 7.66379C7.64754 7.88199 7.08152 8.40962 7.08152 9.48269C7.08152 10.5558 7.86672 11.5927 7.97615 11.7383C8.08569 11.8837 9.49178 14.1562 11.7187 15.0304C13.5693 15.7569 13.946 15.6124 14.3477 15.576C14.7494 15.5397 15.6438 15.0485 15.8264 14.5393C16.009 14.0301 16.009 13.5936 15.9542 13.5024C15.8994 13.4114 15.7533 13.3569 15.5343 13.2479C15.3152 13.1388 14.238 12.6111 14.0372 12.5383C13.8363 12.4657 13.6903 12.4293 13.5442 12.6477C13.3982 12.8658 12.9786 13.3569 12.8507 13.5024C12.7229 13.6481 12.5951 13.6662 12.376 13.5572C12.1568 13.4478 11.4512 13.2178 10.6142 12.4747C9.96283 11.8967 9.52318 11.1828 9.39532 10.9644C9.26756 10.7463 9.38171 10.6282 9.49156 10.5195C9.58996 10.4217 9.71064 10.2649 9.82018 10.1375C9.9295 10.0101 9.96605 9.9193 10.0391 9.77387C10.1121 9.62822 10.0756 9.50083 10.0208 9.39178C9.96605 9.28273 9.54033 8.20412 9.34548 7.77284ZM3 20L4.20095 15.6348C3.46002 14.3572 3.07042 12.9078 3.07085 11.4234C3.07278 6.77874 6.86994 3 11.5355 3C13.7999 3.00107 15.9251 3.87834 17.5231 5.47061C19.1212 7.06277 20.001 9.17925 20 11.4301C19.9981 16.0748 16.2007 19.8539 11.5358 19.8539C11.5355 19.8539 11.536 19.8539 11.5358 19.8539H11.532C10.1155 19.8534 8.72351 19.4995 7.48719 18.8287L3 20Z" fill="#020818"/>
</svg>
