<svg width="171" height="278" viewBox="0 0 171 278" fill="none" xmlns="http://www.w3.org/2000/svg">
<path d="M163.886 225.162C163.886 227.13 165.479 228.725 167.443 228.725C169.408 228.725 171 227.13 171 225.162C171 223.195 169.408 221.6 167.443 221.6C165.479 221.6 163.886 223.195 163.886 225.162Z" fill="#ECF1FF"/>
<path d="M163.886 249.827C163.886 251.795 165.479 253.39 167.443 253.39C169.408 253.39 171 251.795 171 249.827C171 247.86 169.408 246.265 167.443 246.265C165.479 246.265 163.886 247.86 163.886 249.827Z" fill="#ECF1FF"/>
<path d="M163.886 274.437C163.886 276.405 165.479 278 167.443 278C169.408 278 171 276.405 171 274.437C171 272.47 169.408 270.875 167.443 270.875C165.479 270.875 163.886 272.47 163.886 274.437Z" fill="#ECF1FF"/>
<path d="M163.886 200.552C163.886 202.52 165.479 204.115 167.443 204.115C169.408 204.115 171 202.52 171 200.552C171 198.585 169.408 196.99 167.443 196.99C165.479 196.99 163.886 198.585 163.886 200.552Z" fill="#ECF1FF"/>
<path d="M163.886 175.942C163.886 177.91 165.479 179.505 167.443 179.505C169.408 179.505 171 177.91 171 175.942C171 173.975 169.408 172.38 167.443 172.38C165.479 172.38 163.886 173.975 163.886 175.942Z" fill="#ECF1FF"/>
<path d="M163.886 52.7828C163.886 54.7504 165.479 56.3455 167.443 56.3455C169.408 56.3455 171 54.7504 171 52.7828C171 50.8152 169.408 49.2201 167.443 49.2201C165.479 49.2201 163.886 50.8152 163.886 52.7828Z" fill="#ECF1FF"/>
<path d="M163.886 77.4476C163.886 79.4152 165.479 81.0103 167.443 81.0103C169.408 81.0103 171 79.4152 171 77.4476C171 75.48 169.408 73.8849 167.443 73.8849C165.479 73.8849 163.886 75.48 163.886 77.4476Z" fill="#ECF1FF"/>
<path d="M163.886 102.057C163.886 104.025 165.479 105.62 167.443 105.62C169.408 105.62 171 104.025 171 102.057C171 100.09 169.408 98.4948 167.443 98.4948C165.479 98.4948 163.886 100.09 163.886 102.057Z" fill="#ECF1FF"/>
<path d="M163.886 126.668C163.886 128.635 165.479 130.23 167.443 130.23C169.408 130.23 171 128.635 171 126.668C171 124.7 169.408 123.105 167.443 123.105C165.479 123.105 163.886 124.7 163.886 126.668Z" fill="#ECF1FF"/>
<path d="M163.886 151.332C163.886 153.3 165.479 154.895 167.443 154.895C169.408 154.895 171 153.3 171 151.332C171 149.365 169.408 147.77 167.443 147.77C165.479 147.77 163.886 149.365 163.886 151.332Z" fill="#ECF1FF"/>
<path d="M163.886 28.1727C163.886 30.1403 165.479 31.7354 167.443 31.7354C169.408 31.7354 171 30.1403 171 28.1727C171 26.2051 169.408 24.61 167.443 24.61C165.479 24.61 163.886 26.2051 163.886 28.1727Z" fill="#ECF1FF"/>
<path d="M163.886 3.5627C163.886 5.53032 165.479 7.12539 167.443 7.12539C169.408 7.12539 171 5.53032 171 3.5627C171 1.59507 169.408 -6.96075e-08 167.443 -1.55473e-07C165.479 -2.41338e-07 163.886 1.59507 163.886 3.5627Z" fill="#ECF1FF"/>
<path d="M131.109 225.162C131.109 227.13 132.701 228.725 134.666 228.725C136.63 228.725 138.223 227.13 138.223 225.162C138.223 223.195 136.63 221.6 134.666 221.6C132.701 221.6 131.109 223.195 131.109 225.162Z" fill="#ECF1FF"/>
<path d="M131.109 249.827C131.109 251.795 132.701 253.39 134.666 253.39C136.63 253.39 138.223 251.795 138.223 249.827C138.223 247.86 136.63 246.265 134.666 246.265C132.701 246.265 131.109 247.86 131.109 249.827Z" fill="#ECF1FF"/>
<path d="M131.109 274.437C131.109 276.405 132.701 278 134.666 278C136.63 278 138.223 276.405 138.223 274.437C138.223 272.47 136.63 270.875 134.666 270.875C132.701 270.875 131.109 272.47 131.109 274.437Z" fill="#ECF1FF"/>
<path d="M131.109 200.552C131.109 202.52 132.701 204.115 134.666 204.115C136.63 204.115 138.223 202.52 138.223 200.552C138.223 198.585 136.63 196.99 134.666 196.99C132.701 196.99 131.109 198.585 131.109 200.552Z" fill="#ECF1FF"/>
<path d="M131.109 175.942C131.109 177.91 132.701 179.505 134.666 179.505C136.63 179.505 138.223 177.91 138.223 175.942C138.223 173.975 136.63 172.38 134.666 172.38C132.701 172.38 131.109 173.975 131.109 175.942Z" fill="#ECF1FF"/>
<path d="M131.109 52.7828C131.109 54.7504 132.701 56.3455 134.666 56.3455C136.63 56.3455 138.223 54.7504 138.223 52.7828C138.223 50.8152 136.63 49.2201 134.666 49.2201C132.701 49.2201 131.109 50.8152 131.109 52.7828Z" fill="#ECF1FF"/>
<path d="M131.109 77.4476C131.109 79.4152 132.701 81.0103 134.666 81.0103C136.63 81.0103 138.223 79.4152 138.223 77.4476C138.223 75.48 136.63 73.8849 134.666 73.8849C132.701 73.8849 131.109 75.48 131.109 77.4476Z" fill="#ECF1FF"/>
<path d="M131.109 102.057C131.109 104.025 132.701 105.62 134.666 105.62C136.63 105.62 138.223 104.025 138.223 102.057C138.223 100.09 136.63 98.4948 134.666 98.4948C132.701 98.4948 131.109 100.09 131.109 102.057Z" fill="#ECF1FF"/>
<path d="M131.109 126.668C131.109 128.635 132.701 130.23 134.666 130.23C136.63 130.23 138.223 128.635 138.223 126.668C138.223 124.7 136.63 123.105 134.666 123.105C132.701 123.105 131.109 124.7 131.109 126.668Z" fill="#ECF1FF"/>
<path d="M131.109 151.332C131.109 153.3 132.701 154.895 134.666 154.895C136.63 154.895 138.223 153.3 138.223 151.332C138.223 149.365 136.63 147.77 134.666 147.77C132.701 147.77 131.109 149.365 131.109 151.332Z" fill="#ECF1FF"/>
<path d="M131.109 28.1727C131.109 30.1403 132.701 31.7354 134.666 31.7354C136.63 31.7354 138.223 30.1403 138.223 28.1727C138.223 26.2051 136.63 24.61 134.666 24.61C132.701 24.61 131.109 26.2051 131.109 28.1727Z" fill="#ECF1FF"/>
<path d="M131.109 3.5627C131.109 5.53032 132.701 7.12539 134.666 7.12539C136.63 7.12539 138.223 5.53032 138.223 3.5627C138.223 1.59507 136.63 -6.96075e-08 134.666 -1.55473e-07C132.701 -2.41338e-07 131.109 1.59507 131.109 3.5627Z" fill="#ECF1FF"/>
<path d="M98.3317 225.162C98.3317 227.13 99.9241 228.725 101.889 228.725C103.853 228.725 105.445 227.13 105.445 225.162C105.445 223.195 103.853 221.6 101.889 221.6C99.9241 221.6 98.3317 223.195 98.3317 225.162Z" fill="#ECF1FF"/>
<path d="M98.3317 249.827C98.3317 251.795 99.9241 253.39 101.889 253.39C103.853 253.39 105.445 251.795 105.445 249.827C105.445 247.86 103.853 246.265 101.889 246.265C99.9241 246.265 98.3317 247.86 98.3317 249.827Z" fill="#ECF1FF"/>
<path d="M98.3317 274.437C98.3317 276.405 99.9241 278 101.889 278C103.853 278 105.445 276.405 105.445 274.437C105.445 272.47 103.853 270.875 101.889 270.875C99.9241 270.875 98.3317 272.47 98.3317 274.437Z" fill="#ECF1FF"/>
<path d="M98.3317 200.552C98.3317 202.52 99.9241 204.115 101.889 204.115C103.853 204.115 105.445 202.52 105.445 200.552C105.445 198.585 103.853 196.99 101.889 196.99C99.9241 196.99 98.3317 198.585 98.3317 200.552Z" fill="#ECF1FF"/>
<path d="M98.3317 175.942C98.3317 177.91 99.9241 179.505 101.889 179.505C103.853 179.505 105.445 177.91 105.445 175.942C105.445 173.975 103.853 172.38 101.889 172.38C99.9241 172.38 98.3317 173.975 98.3317 175.942Z" fill="#ECF1FF"/>
<path d="M98.3317 52.7828C98.3317 54.7504 99.9241 56.3455 101.889 56.3455C103.853 56.3455 105.445 54.7504 105.445 52.7828C105.445 50.8152 103.853 49.2201 101.889 49.2201C99.9241 49.2201 98.3317 50.8152 98.3317 52.7828Z" fill="#ECF1FF"/>
<path d="M98.3317 77.4476C98.3317 79.4152 99.9241 81.0103 101.889 81.0103C103.853 81.0103 105.445 79.4152 105.445 77.4476C105.445 75.48 103.853 73.8849 101.889 73.8849C99.9241 73.8849 98.3317 75.48 98.3317 77.4476Z" fill="#ECF1FF"/>
<path d="M98.3317 102.057C98.3317 104.025 99.9241 105.62 101.889 105.62C103.853 105.62 105.445 104.025 105.445 102.057C105.445 100.09 103.853 98.4948 101.889 98.4948C99.9241 98.4948 98.3317 100.09 98.3317 102.057Z" fill="#ECF1FF"/>
<path d="M98.3317 126.668C98.3317 128.635 99.9241 130.23 101.889 130.23C103.853 130.23 105.445 128.635 105.445 126.668C105.445 124.7 103.853 123.105 101.889 123.105C99.9241 123.105 98.3317 124.7 98.3317 126.668Z" fill="#ECF1FF"/>
<path d="M98.3317 151.332C98.3317 153.3 99.9241 154.895 101.889 154.895C103.853 154.895 105.445 153.3 105.445 151.332C105.445 149.365 103.853 147.77 101.889 147.77C99.9241 147.77 98.3317 149.365 98.3317 151.332Z" fill="#ECF1FF"/>
<path d="M98.3317 28.1727C98.3317 30.1403 99.9241 31.7354 101.889 31.7354C103.853 31.7354 105.445 30.1403 105.445 28.1727C105.445 26.2051 103.853 24.61 101.889 24.61C99.9241 24.61 98.3317 26.2051 98.3317 28.1727Z" fill="#ECF1FF"/>
<path d="M98.3317 3.5627C98.3317 5.53032 99.9241 7.12539 101.889 7.12539C103.853 7.12539 105.445 5.53032 105.445 3.5627C105.445 1.59507 103.853 -6.96075e-08 101.889 -1.55473e-07C99.9241 -2.41338e-07 98.3317 1.59507 98.3317 3.5627Z" fill="#ECF1FF"/>
<path d="M65.5544 225.162C65.5544 227.13 67.1468 228.725 69.1112 228.725C71.0755 228.725 72.668 227.13 72.668 225.162C72.668 223.195 71.0755 221.6 69.1112 221.6C67.1468 221.6 65.5544 223.195 65.5544 225.162Z" fill="#ECF1FF"/>
<path d="M65.5544 249.827C65.5544 251.795 67.1468 253.39 69.1112 253.39C71.0755 253.39 72.668 251.795 72.668 249.827C72.668 247.86 71.0755 246.265 69.1112 246.265C67.1468 246.265 65.5544 247.86 65.5544 249.827Z" fill="#ECF1FF"/>
<path d="M65.5544 274.437C65.5544 276.405 67.1468 278 69.1112 278C71.0755 278 72.668 276.405 72.668 274.437C72.668 272.47 71.0755 270.875 69.1112 270.875C67.1468 270.875 65.5544 272.47 65.5544 274.437Z" fill="#ECF1FF"/>
<path d="M65.5544 200.552C65.5544 202.52 67.1468 204.115 69.1112 204.115C71.0755 204.115 72.668 202.52 72.668 200.552C72.668 198.585 71.0755 196.99 69.1112 196.99C67.1468 196.99 65.5544 198.585 65.5544 200.552Z" fill="#ECF1FF"/>
<path d="M65.5544 175.942C65.5544 177.91 67.1468 179.505 69.1112 179.505C71.0755 179.505 72.668 177.91 72.668 175.942C72.668 173.975 71.0755 172.38 69.1112 172.38C67.1468 172.38 65.5544 173.975 65.5544 175.942Z" fill="#ECF1FF"/>
<path d="M65.5544 52.7828C65.5544 54.7504 67.1468 56.3455 69.1112 56.3455C71.0755 56.3455 72.668 54.7504 72.668 52.7828C72.668 50.8152 71.0755 49.2201 69.1112 49.2201C67.1468 49.2201 65.5544 50.8152 65.5544 52.7828Z" fill="#ECF1FF"/>
<path d="M65.5544 77.4476C65.5544 79.4152 67.1468 81.0103 69.1112 81.0103C71.0755 81.0103 72.668 79.4152 72.668 77.4476C72.668 75.48 71.0755 73.8849 69.1112 73.8849C67.1468 73.8849 65.5544 75.48 65.5544 77.4476Z" fill="#ECF1FF"/>
<path d="M65.5544 102.057C65.5544 104.025 67.1468 105.62 69.1112 105.62C71.0755 105.62 72.668 104.025 72.668 102.057C72.668 100.09 71.0755 98.4948 69.1112 98.4948C67.1468 98.4948 65.5544 100.09 65.5544 102.057Z" fill="#ECF1FF"/>
<path d="M65.5544 126.668C65.5544 128.635 67.1468 130.23 69.1112 130.23C71.0755 130.23 72.668 128.635 72.668 126.668C72.668 124.7 71.0755 123.105 69.1112 123.105C67.1468 123.105 65.5544 124.7 65.5544 126.668Z" fill="#ECF1FF"/>
<path d="M65.5544 151.332C65.5544 153.3 67.1468 154.895 69.1112 154.895C71.0755 154.895 72.668 153.3 72.668 151.332C72.668 149.365 71.0755 147.77 69.1112 147.77C67.1468 147.77 65.5544 149.365 65.5544 151.332Z" fill="#ECF1FF"/>
<path d="M65.5544 28.1727C65.5544 30.1403 67.1468 31.7354 69.1112 31.7354C71.0755 31.7354 72.668 30.1403 72.668 28.1727C72.668 26.2051 71.0755 24.61 69.1112 24.61C67.1468 24.61 65.5544 26.2051 65.5544 28.1727Z" fill="#ECF1FF"/>
<path d="M65.5544 3.5627C65.5544 5.53032 67.1468 7.12539 69.1112 7.12539C71.0755 7.12539 72.668 5.53032 72.668 3.5627C72.668 1.59507 71.0755 -6.96074e-08 69.1112 -1.55473e-07C67.1468 -2.41338e-07 65.5544 1.59507 65.5544 3.5627Z" fill="#ECF1FF"/>
<path d="M32.777 225.162C32.777 227.13 34.3695 228.725 36.3338 228.725C38.2982 228.725 39.8906 227.13 39.8906 225.162C39.8906 223.195 38.2982 221.6 36.3338 221.6C34.3695 221.6 32.777 223.195 32.777 225.162Z" fill="#ECF1FF"/>
<path d="M32.777 249.827C32.777 251.795 34.3695 253.39 36.3338 253.39C38.2982 253.39 39.8906 251.795 39.8906 249.827C39.8906 247.86 38.2982 246.265 36.3338 246.265C34.3695 246.265 32.777 247.86 32.777 249.827Z" fill="#ECF1FF"/>
<path d="M32.777 274.437C32.777 276.405 34.3695 278 36.3338 278C38.2982 278 39.8906 276.405 39.8906 274.437C39.8906 272.47 38.2982 270.875 36.3338 270.875C34.3695 270.875 32.777 272.47 32.777 274.437Z" fill="#ECF1FF"/>
<path d="M32.777 200.552C32.777 202.52 34.3695 204.115 36.3338 204.115C38.2982 204.115 39.8906 202.52 39.8906 200.552C39.8906 198.585 38.2982 196.99 36.3338 196.99C34.3695 196.99 32.777 198.585 32.777 200.552Z" fill="#ECF1FF"/>
<path d="M32.777 175.942C32.777 177.91 34.3695 179.505 36.3338 179.505C38.2982 179.505 39.8906 177.91 39.8906 175.942C39.8906 173.975 38.2982 172.38 36.3338 172.38C34.3695 172.38 32.777 173.975 32.777 175.942Z" fill="#ECF1FF"/>
<path d="M32.777 52.7828C32.777 54.7504 34.3695 56.3455 36.3338 56.3455C38.2982 56.3455 39.8906 54.7504 39.8906 52.7828C39.8906 50.8152 38.2982 49.2201 36.3338 49.2201C34.3695 49.2201 32.777 50.8152 32.777 52.7828Z" fill="#ECF1FF"/>
<path d="M32.777 77.4476C32.777 79.4152 34.3695 81.0103 36.3338 81.0103C38.2982 81.0103 39.8906 79.4152 39.8906 77.4476C39.8906 75.48 38.2982 73.8849 36.3338 73.8849C34.3695 73.8849 32.777 75.48 32.777 77.4476Z" fill="#ECF1FF"/>
<path d="M32.777 102.057C32.777 104.025 34.3695 105.62 36.3338 105.62C38.2982 105.62 39.8906 104.025 39.8906 102.057C39.8906 100.09 38.2982 98.4948 36.3338 98.4948C34.3695 98.4948 32.777 100.09 32.777 102.057Z" fill="#ECF1FF"/>
<path d="M32.777 126.668C32.777 128.635 34.3695 130.23 36.3338 130.23C38.2982 130.23 39.8906 128.635 39.8906 126.668C39.8906 124.7 38.2982 123.105 36.3338 123.105C34.3695 123.105 32.777 124.7 32.777 126.668Z" fill="#ECF1FF"/>
<path d="M32.777 151.332C32.777 153.3 34.3695 154.895 36.3338 154.895C38.2982 154.895 39.8906 153.3 39.8906 151.332C39.8906 149.365 38.2982 147.77 36.3338 147.77C34.3695 147.77 32.777 149.365 32.777 151.332Z" fill="#ECF1FF"/>
<path d="M32.777 28.1727C32.777 30.1403 34.3695 31.7354 36.3338 31.7354C38.2982 31.7354 39.8906 30.1403 39.8906 28.1727C39.8906 26.2051 38.2982 24.61 36.3338 24.61C34.3695 24.61 32.777 26.2051 32.777 28.1727Z" fill="#ECF1FF"/>
<path d="M32.777 3.5627C32.777 5.53032 34.3695 7.12539 36.3338 7.12539C38.2982 7.12539 39.8906 5.53032 39.8906 3.5627C39.8906 1.59507 38.2982 -6.96074e-08 36.3338 -1.55472e-07C34.3695 -2.41337e-07 32.777 1.59507 32.777 3.5627Z" fill="#ECF1FF"/>
<path d="M-0.00032059 225.162C-0.000320676 227.13 1.59211 228.725 3.55648 228.725C5.52085 228.725 7.11328 227.13 7.11328 225.162C7.11328 223.195 5.52085 221.6 3.55648 221.6C1.59211 221.6 -0.000320504 223.195 -0.00032059 225.162Z" fill="#ECF1FF"/>
<path d="M-0.00032059 249.827C-0.000320676 251.795 1.59211 253.39 3.55648 253.39C5.52085 253.39 7.11328 251.795 7.11328 249.827C7.11328 247.86 5.52085 246.265 3.55648 246.265C1.59211 246.265 -0.000320504 247.86 -0.00032059 249.827Z" fill="#ECF1FF"/>
<path d="M-0.00032059 274.437C-0.000320676 276.405 1.59211 278 3.55648 278C5.52085 278 7.11328 276.405 7.11328 274.437C7.11328 272.47 5.52085 270.875 3.55648 270.875C1.59211 270.875 -0.000320504 272.47 -0.00032059 274.437Z" fill="#ECF1FF"/>
<path d="M-0.00032059 200.552C-0.000320676 202.52 1.59211 204.115 3.55648 204.115C5.52085 204.115 7.11328 202.52 7.11328 200.552C7.11328 198.585 5.52085 196.99 3.55648 196.99C1.59211 196.99 -0.000320504 198.585 -0.00032059 200.552Z" fill="#ECF1FF"/>
<path d="M-0.00032059 175.942C-0.000320676 177.91 1.59211 179.505 3.55648 179.505C5.52085 179.505 7.11328 177.91 7.11328 175.942C7.11328 173.975 5.52085 172.38 3.55648 172.38C1.59211 172.38 -0.000320504 173.975 -0.00032059 175.942Z" fill="#ECF1FF"/>
<path d="M-0.00032059 52.7828C-0.000320676 54.7504 1.59211 56.3455 3.55648 56.3455C5.52085 56.3455 7.11328 54.7504 7.11328 52.7828C7.11328 50.8152 5.52085 49.2201 3.55648 49.2201C1.59211 49.2201 -0.000320504 50.8152 -0.00032059 52.7828Z" fill="#ECF1FF"/>
<path d="M-0.00032059 77.4476C-0.000320676 79.4152 1.59211 81.0103 3.55648 81.0103C5.52085 81.0103 7.11328 79.4152 7.11328 77.4476C7.11328 75.48 5.52085 73.8849 3.55648 73.8849C1.59211 73.8849 -0.000320504 75.48 -0.00032059 77.4476Z" fill="#ECF1FF"/>
<path d="M-0.00032059 102.057C-0.000320676 104.025 1.59211 105.62 3.55648 105.62C5.52085 105.62 7.11328 104.025 7.11328 102.057C7.11328 100.09 5.52085 98.4948 3.55648 98.4948C1.59211 98.4948 -0.000320504 100.09 -0.00032059 102.057Z" fill="#ECF1FF"/>
<path d="M-0.00032059 126.668C-0.000320676 128.635 1.59211 130.23 3.55648 130.23C5.52085 130.23 7.11328 128.635 7.11328 126.668C7.11328 124.7 5.52085 123.105 3.55648 123.105C1.59211 123.105 -0.000320504 124.7 -0.00032059 126.668Z" fill="#ECF1FF"/>
<path d="M-0.00032059 151.332C-0.000320676 153.3 1.59211 154.895 3.55648 154.895C5.52085 154.895 7.11328 153.3 7.11328 151.332C7.11328 149.365 5.52085 147.77 3.55648 147.77C1.59211 147.77 -0.000320504 149.365 -0.00032059 151.332Z" fill="#ECF1FF"/>
<path d="M-0.00032059 28.1727C-0.000320676 30.1403 1.59211 31.7354 3.55648 31.7354C5.52085 31.7354 7.11328 30.1403 7.11328 28.1727C7.11328 26.2051 5.52085 24.61 3.55648 24.61C1.59211 24.61 -0.000320504 26.2051 -0.00032059 28.1727Z" fill="#ECF1FF"/>
<path d="M-0.00032059 3.5627C-0.000320676 5.53032 1.59211 7.12539 3.55648 7.12539C5.52085 7.12539 7.11328 5.53032 7.11328 3.5627C7.11328 1.59507 5.52085 -6.96075e-08 3.55648 -1.55473e-07C1.59211 -2.41338e-07 -0.000320504 1.59507 -0.00032059 3.5627Z" fill="#ECF1FF"/>
</svg>
