<?xml version="1.0" encoding="utf-8"?><svg xmlns="http://www.w3.org/2000/svg" xmlns:xlink="http://www.w3.org/1999/xlink"><symbol viewBox="0 0 24 24" id="mail" xmlns="http://www.w3.org/2000/svg"><path fill-rule="evenodd" clip-rule="evenodd" d="M3.598 5h16.805a.598.598 0 01.597.598v1.075c0 .066-.053.102-.107.139l-.01.007c-.047.032-.17.1-.22.128l-.005.003-8.566 5.04a.147.147 0 01-.075.02.148.148 0 01-.075-.02L3.11 6.945C3.06 6.919 3 6.855 3 6.8V5.598A.598.598 0 013.598 5zM20.85 8.594a.15.15 0 01.13.074.15.15 0 01.02.075v8.078a.15.15 0 01-.209.137.148.148 0 01-.05-.035l-4.848-5.226a.15.15 0 01.034-.23l4.848-2.853a.15.15 0 01.075-.02zm-6.32 3.83a.148.148 0 00-.185-.027l-1.943 1.143a.757.757 0 01-.75.005l-1.71-.977a.15.15 0 00-.175.02l-6.494 6.023a.15.15 0 00.027.239c.1.06.198.087.297.087H20.23a.149.149 0 00.11-.25l-5.81-6.263zm-6.154-.606a.15.15 0 01-.038.058L3.25 16.595a.15.15 0 01-.227-.027.15.15 0 01-.024-.082V8.86a.15.15 0 01.223-.13l5.088 2.906a.148.148 0 01.065.182z"/></symbol><symbol viewBox="0 0 24 24" id="phone" xmlns="http://www.w3.org/2000/svg"><path fill-rule="evenodd" clip-rule="evenodd" d="M13.231 13.23c-1.583 1.582-3.418 3.096-4.143 2.371-1.037-1.037-1.677-1.941-3.966-.102-2.288 1.838-.53 3.064.475 4.068 1.16 1.16 5.486.063 9.761-4.211 4.274-4.274 5.37-8.599 4.208-9.76-1.005-1.005-2.225-2.761-4.064-.474-1.84 2.287-.936 2.927.103 3.965 1.69 1.687-.685 2.455-2.374 4.143z"/></symbol><symbol viewBox="0 0 24 24" id="pin" xmlns="http://www.w3.org/2000/svg"><path d="M12 3c-2.121.002-4.154.748-5.654 2.074C4.846 6.399 4.003 8.197 4 10.07c0 6.051 7.273 10.621 7.582 10.813A.796.796 0 0012 21c.15 0 .295-.04.418-.116.31-.192 7.582-4.762 7.582-10.813-.003-1.874-.846-3.672-2.346-4.997C16.154 3.748 14.121 3.002 12 3zm0 4.5c.576 0 1.138.151 1.617.434.478.282.851.684 1.071 1.154.22.47.278.987.166 1.485-.112.5-.39.957-.796 1.317-.407.36-.926.604-1.49.704a3.26 3.26 0 01-1.68-.147 2.862 2.862 0 01-1.306-.947c-.32-.423-.49-.92-.49-1.428 0-.682.306-1.336.852-1.819.545-.482 1.285-.753 2.056-.753z"/></symbol><symbol viewBox="0 0 24 24" id="time" xmlns="http://www.w3.org/2000/svg"><path d="M12 3c-4.963 0-9 4.037-9 9s4.037 9 9 9 9-4.037 9-9-4.037-9-9-9zm5.175 9.9H11.1V6.6h1.8v4.5h4.275v1.8z"/></symbol></svg>