<svg width="85" height="80" viewBox="0 0 85 80" fill="none" xmlns="http://www.w3.org/2000/svg">
<path d="M11.9003 53.8617L11.8693 53.9869C11.8633 54.0099 11.8703 54.033 11.8663 54.056C10.4474 61.9659 10.4354 70.2936 11.9555 78.4148C12.0466 78.8958 12.4675 79.2325 12.9394 79.2325C13.0005 79.2325 13.0627 79.2274 13.1248 79.2154C13.6689 79.1132 14.0276 78.5902 13.9264 78.0461C12.5176 70.523 12.4595 62.8216 13.6519 55.4679C15.9164 56.0861 21.6268 57.8857 27.1048 61.5671C29.8162 63.3897 31.7271 65.1583 33.2571 66.7244C35.9796 69.8817 38.186 77.5341 38.186 78.998C38.186 79.5511 38.6339 80 39.188 80C39.7421 80 40.19 79.5511 40.19 78.998C40.19 77.9409 39.3864 74.6322 38.0708 71.3477C38.9666 71.9198 39.9225 72.2645 41.0938 72.2645H42.4445H43.7952C44.9666 72.2645 45.9225 71.9198 46.8173 71.3477C45.5016 74.6322 44.698 77.9399 44.698 78.997C44.698 79.5501 45.1459 79.999 45.7 79.999C46.2542 79.999 46.702 79.5501 46.702 78.997C46.702 77.5331 48.9085 69.8817 51.6299 66.7244C53.16 65.1583 55.0708 63.3887 57.7832 61.5661C63.2492 57.8917 68.9686 56.0871 71.2352 55.4669C72.4266 62.8206 72.3685 70.522 70.9606 78.0441C70.8584 78.5882 71.2182 79.1112 71.7622 79.2134C71.8244 79.2254 71.8865 79.2305 71.9476 79.2305C72.4206 79.2305 72.8414 78.8948 72.9316 78.4128C74.4516 70.2926 74.4396 61.9659 73.0208 54.056C73.0168 54.032 73.0238 54.0079 73.0178 53.9849L72.9857 53.8546C71.7562 47.1211 69.5077 40.6933 66.2752 34.9678C60.8764 25.5109 60.4245 19.0329 60.4245 13.7032C60.4245 9.41362 61.0368 5.23926 62.2432 1.29536C62.4055 0.766303 62.1069 0.206181 61.5788 0.0438558C61.0478 -0.117467 60.4897 0.180129 60.3273 0.709189C59.0618 4.84247 58.4205 9.21523 58.4205 13.7032C58.4205 19.2904 58.8935 26.079 64.5328 35.9568C66.8103 39.9909 68.5769 44.3907 69.8344 49.0019C67.1239 50.3656 55.3554 55.9428 43.5227 56.3106H42.4455H41.3994C29.5517 55.9428 17.7671 50.3636 15.0567 49.0009C16.3132 44.3917 18.0787 39.9939 20.3553 35.9618C25.9976 26.081 26.4705 19.2914 26.4705 13.7042C26.4705 9.21623 25.8282 4.84347 24.5637 0.71019C24.4014 0.181131 23.8433 -0.116465 23.3122 0.0448582C22.7841 0.207183 22.4855 0.767305 22.6479 1.29636C23.8543 5.24026 24.4665 9.41563 24.4665 13.7042C24.4665 19.0349 24.0146 25.5139 18.6128 34.9728C15.3773 40.6983 13.1288 47.1272 11.9003 53.8617Z" fill="#020818"/>
<path d="M42.2652 33.1421C42.9125 33.1421 43.4406 32.615 43.4406 31.9667C43.4406 31.3184 42.9135 30.7914 42.2652 30.7914C41.6169 30.7914 41.0898 31.3184 41.0898 31.9667C41.0898 32.615 41.6169 33.1421 42.2652 33.1421Z" fill="#020818"/>
<path d="M12.4269 20.5209C12.4269 20.8816 12.6203 21.2143 12.9349 21.3927C13.0872 21.4798 13.2586 21.5229 13.4289 21.5229C13.6073 21.5229 13.7846 21.4758 13.9429 21.3806L19.6213 17.9878C19.9249 17.8065 20.1093 17.4808 20.1093 17.1281C20.1093 16.7754 19.9239 16.4488 19.6213 16.2684L13.9429 12.8756C13.6343 12.6912 13.2475 12.6862 12.9349 12.8646C12.6213 13.0429 12.4269 13.3756 12.4269 13.7363V16.1271H1.00201C0.447898 16.1271 0 16.576 0 17.1291C0 17.6822 0.447898 18.1311 1.00201 18.1311H12.4269V20.5209Z" fill="#020818"/>
<path d="M83.8778 16.126H72.4519V13.7352C72.4519 13.3745 72.2585 13.0418 71.9439 12.8635C71.6313 12.6851 71.2435 12.6901 70.9359 12.8745L65.2575 16.2673C64.9539 16.4487 64.7695 16.7743 64.7695 17.127C64.7695 17.4797 64.9549 17.8064 65.2575 17.9867L70.9359 21.3795C71.0932 21.4737 71.2716 21.5218 71.4499 21.5218C71.6203 21.5218 71.7916 21.4787 71.9439 21.3916C72.2575 21.2132 72.4519 20.8805 72.4519 20.5198V18.129H83.8768C84.4309 18.129 84.8788 17.6801 84.8788 17.127C84.8788 16.5739 84.4319 16.126 83.8778 16.126Z" fill="#020818"/>
</svg>
