<svg width="62" height="80" viewBox="0 0 62 80" fill="none" xmlns="http://www.w3.org/2000/svg">
<path d="M5.87668 80C6.0447 80 6.21461 79.9547 6.36848 79.8612C6.81308 79.5894 6.95278 79.0089 6.68187 78.5633C6.58842 78.4113 -2.16391 63.6583 4.37485 42.6232C6.77626 42.2579 16.516 41.1054 23.859 45.1191C30.6035 48.8052 29.8748 53.894 29.8418 54.1027C29.8399 54.1149 29.8446 54.1263 29.8427 54.1385C29.8408 54.1508 29.8333 54.1602 29.8323 54.1725C29.8078 54.4293 29.4812 57.482 27.7905 60.5083C27.7707 60.5263 27.7452 60.5348 27.7264 60.5546C27.6102 60.6792 27.5498 60.8293 27.513 60.9841C25.6421 64.0557 22.2986 66.947 16.3423 66.6789C15.7872 66.6601 15.3794 67.0603 15.3577 67.5814C15.3351 68.1024 15.7382 68.5432 16.2592 68.565C16.5405 68.5772 16.8133 68.5838 17.0842 68.5838C21.1026 68.5838 24.027 67.2538 26.1566 65.4093C26.9438 66.9668 28.6363 71.2061 28.1181 78.1281C28.0794 78.6483 28.4683 79.1014 28.9884 79.1401C29.013 79.142 29.0366 79.1429 29.0602 79.1429C29.5501 79.1429 29.9635 78.7653 30.0003 78.2697C30.6167 70.0432 28.288 65.2904 27.5498 64.0123C27.9935 63.4978 28.389 62.9645 28.7449 62.4217C29.2452 62.6029 29.9475 62.7596 30.9207 62.7596C31.9732 62.7596 32.7208 62.5784 33.2249 62.3783C33.5883 62.9352 33.9942 63.4846 34.4492 64.0123C33.7101 65.2913 31.3813 70.0441 31.9987 78.2697C32.0355 78.7653 32.4499 79.1429 32.9389 79.1429C32.9625 79.1429 32.987 79.142 33.0106 79.1401C33.5307 79.1014 33.9196 78.6483 33.8809 78.1281C33.3646 71.2524 35.059 66.9838 35.8453 65.4122C37.9739 67.2548 40.8983 68.5829 44.9148 68.5829C45.1848 68.5829 45.4594 68.5772 45.7398 68.564C46.2609 68.5414 46.6639 68.1005 46.6413 67.5804C46.6186 67.0603 46.208 66.6582 45.6567 66.678C33.6421 67.2009 32.2205 54.703 32.1677 54.1706C32.1667 54.1593 32.1601 54.1508 32.1582 54.1395C32.1573 54.1291 32.161 54.1196 32.1592 54.1083C32.1252 53.8931 31.3964 48.8042 38.141 45.1191C45.484 41.1054 55.2237 42.257 57.6251 42.6232C64.1639 63.6583 55.4115 78.4113 55.3181 78.5633C55.0472 79.0079 55.1869 79.5884 55.6315 79.8612C55.7854 79.9547 55.9562 80 56.1233 80C56.4405 80 56.7501 79.8395 56.9285 79.5488C57.3419 78.8748 66.9504 62.7644 58.5898 39.5488C56.919 34.9102 55.471 31.2552 54.3071 28.3186C50.4615 18.6157 49.0219 14.9853 49.0219 0.943953C49.0219 0.422891 48.6 0 48.078 0C47.556 0 47.134 0.422891 47.134 0.943953C47.134 15.3458 48.7199 19.3473 52.5514 29.0133C53.771 32.0906 55.1538 35.5776 56.8143 40.1878C56.8567 40.3058 56.8917 40.4219 56.9332 40.5399C52.6703 39.7121 40.802 37.5901 31.2275 37.5901C31.1463 37.5901 31.0736 37.6175 30.9981 37.6363C30.9226 37.6175 30.8499 37.5901 30.7687 37.5901C21.1942 37.5901 9.32588 39.713 5.06299 40.5399C5.10452 40.4219 5.13945 40.3068 5.18193 40.1878C6.84234 35.5776 8.22523 32.0906 9.44482 29.0133C13.2773 19.3463 14.8622 15.3458 14.8622 0.943953C14.8622 0.422891 14.4402 0 13.9182 0C13.3962 0 12.9743 0.422891 12.9743 0.943953C12.9743 14.9853 11.5357 18.6157 7.68907 28.3186C6.52517 31.2552 5.07621 34.9102 3.40635 39.5488C-4.95424 62.7653 4.65426 78.8748 5.06771 79.5488C5.24989 79.8395 5.55951 80 5.87668 80Z" fill="#020818"/>
<path d="M31.3371 23.7442V0.943953C31.3371 0.422891 30.9152 0 30.3932 0C29.8712 0 29.4492 0.422891 29.4492 0.943953V23.7442C29.4492 24.2653 29.8712 24.6881 30.3932 24.6881C30.9152 24.6881 31.3371 24.2653 31.3371 23.7442Z" fill="#020818"/>
</svg>
