<svg width="71" height="80" viewBox="0 0 71 80" fill="none" xmlns="http://www.w3.org/2000/svg">
<g clip-path="url(#clip0_1076_436)">
<path d="M43.4761 69.4602C43.9884 69.6066 44.574 69.3138 44.7204 68.8015C44.8667 68.2891 44.574 67.7036 44.0616 67.5572C39.9628 66.3129 31.1796 69.8262 22.6893 73.193C19.0296 74.6569 15.5163 76.0476 12.8814 76.8527C8.12383 78.3166 4.46418 78.3897 2.92713 77.1455C2.1952 76.5599 1.90242 75.7548 2.04881 74.5837C2.41478 70.2653 10.6856 66.8984 16.7606 64.4099C19.5419 63.312 21.9573 62.2873 23.348 61.409C30.6673 56.505 25.617 40.5489 25.3974 39.817C25.3242 39.5242 25.1046 39.3779 24.885 39.2315C24.7387 39.1583 24.5923 39.0851 24.4459 39.0851C24.3727 39.0851 24.2263 39.0851 24.1531 39.1583C23.6408 39.3047 23.348 39.8902 23.4944 40.4026C24.885 44.6478 27.3004 56.3586 22.2501 59.6523C21.0058 60.4574 18.5904 61.409 16.1019 62.5069C9.07534 65.2882 0.438563 68.7283 -0.00059509 74.3641C-0.146981 76.7063 0.804528 77.9506 1.60965 78.6825C3.80544 80.4391 7.75787 80.4391 13.3937 78.7557C16.1019 77.9506 19.6151 76.5599 23.348 75.0229C30.8869 72.0951 40.1092 68.4355 43.4761 69.4602Z" fill="black"/>
<path d="M70.191 73.925C69.5323 67.9964 60.0172 64.7027 52.4051 62.0677C49.697 61.1162 47.3548 60.3111 46.1105 59.5792C40.9138 56.5783 43.256 44.6478 44.5734 40.3294C44.6466 40.0366 44.6466 39.817 44.5003 39.5243C44.3539 39.2315 44.1343 39.0851 43.9147 39.0119C43.4024 38.8655 42.8168 39.1583 42.6704 39.6707C42.4508 40.4026 37.4005 56.7978 45.0858 61.2626C46.4765 62.0677 48.8918 62.9461 51.6732 63.8976C58.041 66.0934 67.6293 69.387 68.1416 74.0714C68.288 75.6085 68.1416 76.6332 67.5561 77.1455C66.3118 78.2434 62.5789 77.4383 57.9678 76.4136L55.6988 75.9012C54.7473 75.6816 53.5762 75.3157 52.1855 74.9497H52.1123C47.9403 73.7054 42.2313 71.9488 37.0346 72.5343C36.7418 72.5343 36.5222 72.6807 36.3758 72.9003C36.2294 73.1199 36.1562 73.3395 36.1562 73.6322C36.2294 74.2178 36.7418 74.5838 37.2541 74.5106C37.8397 74.4374 38.4252 74.4374 39.084 74.4374C43.4024 74.4374 48.0867 75.828 51.6 76.9259C53.0638 77.3651 54.3081 77.7311 55.3328 77.9506L57.6018 78.463C60.8955 79.1949 63.5304 79.7805 65.5067 79.7805C67.0437 79.7805 68.1416 79.4145 68.9467 78.7558C70.0446 77.7311 70.4106 76.194 70.191 73.925Z" fill="black"/>
<path d="M5.92661 60.8966C9.29349 61.3358 12.7336 60.0183 14.4902 57.6029C15.3685 56.4318 15.8809 53.2845 16.9056 47.3559C17.7839 42.3788 18.7354 36.7429 19.9797 32.9369C20.7848 30.4483 25.1764 29.7164 27.8113 29.3504C29.3484 29.1308 30.1535 28.9844 30.6659 28.6185C31.5442 27.9597 32.0565 26.1299 32.0565 23.4218C32.7153 23.7145 33.4472 23.8609 34.1791 23.8609C34.9842 23.8609 35.7162 23.7145 36.4481 23.4218C36.5213 26.1299 37.0337 27.9597 37.8388 28.6185C38.3511 28.9844 39.0831 29.1308 40.6933 29.4236C43.4014 29.8628 47.8662 30.6679 48.6713 33.1564C49.9888 37.0357 50.8671 42.6715 51.6723 47.6487C52.6238 53.5041 53.1361 56.6514 54.0144 57.7493C55.7711 60.1647 59.1379 61.4822 62.578 61.043C63.1636 60.9698 63.5295 60.4575 63.4563 59.8719C63.3831 59.5791 63.3099 59.3596 63.0904 59.2132C62.8708 59.0668 62.578 58.9936 62.3584 58.9936C59.7967 59.3596 57.0153 58.3349 55.6979 56.505C55.1855 55.7731 54.5268 52.0403 53.7217 47.2827C52.9165 42.2324 51.965 36.4501 50.6476 32.4245C49.4033 28.7649 44.2066 27.8866 41.0593 27.3742L40.7665 27.301C40.0346 27.1546 39.3026 27.0814 39.1562 27.0082H39.0831L39.0099 26.935C38.5707 26.4227 38.3511 24.2269 38.3511 22.3971C38.3511 22.2507 38.3511 22.1775 38.2779 22.1043C40.8397 19.8353 42.5963 15.6633 42.5963 10.7594C42.7427 4.09881 39.449 0 34.1791 0C28.5433 0 25.6155 5.41629 25.6155 10.7594C25.6155 15.6633 27.4454 19.9817 30.0803 22.1775C30.0803 22.2507 30.0803 22.3239 30.0803 22.3971C30.0803 24.1537 29.8607 26.4227 29.568 26.7887V26.8618H29.4948C29.2752 27.0082 28.4701 27.0814 27.5186 27.2278C24.4444 27.7402 19.3209 28.5453 18.1498 32.2049C16.8324 36.1574 15.8809 41.8664 15.0025 46.9167C14.1974 51.8207 13.4655 55.6267 12.9531 56.3586C11.6357 58.1885 8.92752 59.2132 6.29258 58.8472C6.21938 58.8472 6.21938 58.8472 6.14619 58.8472C5.92661 58.8472 5.70703 58.9204 5.56064 59.0668C5.34107 59.2132 5.19468 59.5059 5.19468 59.7255C4.9751 60.3111 5.41426 60.8234 5.92661 60.8966ZM27.6649 10.7594C27.6649 7.75846 29.0556 2.04941 34.1791 2.04941C40.2541 2.04941 40.6933 8.70997 40.6933 10.7594C40.6933 16.6148 37.6192 21.7383 34.1791 21.7383C30.7391 21.7383 27.6649 16.6148 27.6649 10.7594Z" fill="black"/>
</g>
<defs>
<clipPath id="clip0_1076_436">
<rect width="70.2653" height="80" fill="white"/>
</clipPath>
</defs>
</svg>
