<svg width="73" height="76" viewBox="0 0 73 76" fill="none" xmlns="http://www.w3.org/2000/svg">
<path d="M50.0036 47.8109C50.3459 48.4484 50.1338 49.258 49.5299 49.6193C48.926 49.9806 48.159 49.7567 47.8167 49.1193C41.4151 37.1969 30.503 34.5049 18.2157 41.7941C17.7222 42.0868 17.1044 41.9953 16.7063 41.5706C12.1743 36.7346 7.0866 34.594 1.35526 35.0687C0.663233 35.126 0.0582146 34.5803 0.00391452 33.8498C-0.0503855 33.1193 0.466596 32.4807 1.15862 32.4234C7.35993 31.9098 12.9354 34.1161 17.814 39.0019C30.9501 31.6297 43.0413 34.8442 50.0036 47.8109ZM46.0643 55.5145C46.618 55.0726 47.4062 55.1881 47.8249 55.7726C48.2435 56.357 48.1341 57.1891 47.5804 57.631C36.3534 66.5916 25.3445 66.6835 14.8863 57.5006C14.3527 57.032 14.2799 56.1955 14.7238 55.6322C15.1678 55.0689 15.9602 54.9921 16.4939 55.4607C26.0282 63.8324 35.7441 63.7513 46.0643 55.5145ZM33.4836 16.943C33.0256 16.3924 33.0772 15.5541 33.5989 15.0707C34.1205 14.5873 34.9146 14.6417 35.3726 15.1923C40.4707 21.3217 41.8708 28.7534 41.0535 38.7614C40.9939 39.4914 40.3849 40.0322 39.6933 39.9693C39.0017 39.9064 38.4894 39.2635 38.549 38.5335C39.3132 29.1761 38.0408 22.4219 33.4836 16.943ZM34.5319 11.7402C34.6751 11.0232 35.3419 10.5645 36.0211 10.7157C36.7003 10.8668 37.1348 11.5706 36.9916 12.2875C36.6756 13.8698 36.1182 15.6158 35.5203 16.7242L34.944 17.2775L20.7269 24.0311C18.9654 24.781 17.8686 23.9322 16.683 21.9693L13.6335 21.101C12.1081 20.5683 11.2549 18.8491 11.4585 16.9289L13.5898 4.73258C14.0153 2.38913 15.8438 0.25552 18.3982 0L35.2012 0.328434C37.3952 0.402084 39.6 1.50634 41.6391 3.39035C55.7661 16.7677 69.0877 36.5432 72.1297 49.5462C73.3153 54.9206 72.5446 60.9573 70.0811 66.2292C69.9483 66.5135 69.7233 66.7382 69.4471 66.8626C47.3213 76.8264 29.3607 78.6883 14.5584 72.2183L10.4633 74.463C9.84721 74.8007 9.08847 74.5473 8.76857 73.897C8.44867 73.2467 8.68875 72.4458 9.3048 72.1081L13.9238 69.5764C14.2583 69.393 14.653 69.3778 14.9992 69.5348C29.0875 75.9242 46.4034 74.2731 68.0265 64.6167C70.0809 59.9865 70.6989 54.7604 69.6853 50.1652C66.7877 37.7797 53.7456 18.4191 39.972 5.37623C38.3473 3.87522 36.6643 3.0323 35.138 2.98095L18.4977 2.64685C17.3075 2.7701 16.2901 3.95725 16.0603 5.22295L13.9439 17.3148C13.8746 17.9793 14.1213 18.4765 14.3549 18.5603L17.8183 19.5443C18.1337 19.6339 18.4036 19.8495 18.571 20.1455C19.2445 21.3369 19.5877 21.655 19.7409 21.5909L33.5159 15.0462C33.9094 14.1817 34.3004 12.8992 34.5319 11.7402Z" fill="#020818"/>
</svg>
