<svg width="77" height="80" viewBox="0 0 77 80" fill="none" xmlns="http://www.w3.org/2000/svg">
<g clip-path="url(#clip0_1076_402)">
<path d="M40.8009 74C40.2409 74 39.8409 74.48 39.8409 74.96V77.52C39.8409 77.92 39.5209 78.16 39.2009 78.16H37.5209C37.1209 78.16 36.8809 77.84 36.8809 77.52V74.96C36.8809 74.4 36.4009 74 35.9209 74C35.3609 74 34.9609 74.48 34.9609 74.96V77.52C34.9609 78.88 36.0809 80 37.4409 80H39.1209C40.4809 80 41.6009 78.88 41.7609 77.52V74.96C41.7609 74.4 41.2809 74 40.8009 74Z" fill="black"/>
<path d="M41.2784 65.6801C40.7184 65.6801 40.3184 66.1601 40.3184 66.6401V69.7601C40.3184 70.3201 39.9184 70.7201 39.3584 70.7201H37.2784C36.7184 70.7201 36.3184 70.3201 36.3184 69.7601V66.6401C36.3184 66.0801 35.8384 65.6801 35.3584 65.6801C34.7984 65.6801 34.3984 66.1601 34.3984 66.6401V69.7601C34.3984 71.2801 35.5984 72.5601 37.1984 72.5601H39.2784C40.8784 72.5601 42.0784 71.2801 42.2384 69.7601V66.6401C42.2384 66.0801 41.7584 65.6801 41.2784 65.6801Z" fill="black"/>
<path d="M41.2784 57.28C40.7184 57.28 40.3184 57.76 40.3184 58.24V61.36C40.3184 61.92 39.9184 62.32 39.3584 62.32H37.2784C36.7184 62.32 36.3184 61.92 36.3184 61.36V58.24C36.3184 57.68 35.8384 57.28 35.3584 57.28C34.7984 57.28 34.3984 57.76 34.3984 58.24V61.36C34.3984 62.88 35.5984 64.16 37.1984 64.16H39.2784C40.8784 64.16 42.0784 62.88 42.2384 61.36V58.24C42.2384 57.68 41.7584 57.28 41.2784 57.28Z" fill="black"/>
<path d="M41.2784 48.5601C40.7184 48.5601 40.3184 49.0401 40.3184 49.5201V52.6401C40.3184 53.2001 39.9184 53.6001 39.3584 53.6001H37.2784C36.7184 53.6001 36.3184 53.2001 36.3184 52.6401V49.5201C36.3184 48.9601 35.8384 48.5601 35.3584 48.5601C34.7984 48.5601 34.3984 49.0401 34.3984 49.5201V52.6401C34.3984 54.1601 35.5984 55.4401 37.1984 55.4401H39.2784C40.8784 55.4401 42.0784 54.1601 42.2384 52.6401V49.5201C42.2384 48.9601 41.7584 48.5601 41.2784 48.5601Z" fill="black"/>
<path d="M41.2784 39.84C40.7184 39.84 40.3184 40.32 40.3184 40.8V43.92C40.3184 44.48 39.9184 44.88 39.3584 44.88H37.2784C36.7184 44.88 36.3184 44.48 36.3184 43.92V40.8C36.3184 40.24 35.8384 39.84 35.3584 39.84C34.7984 39.84 34.3984 40.32 34.3984 40.8V44C34.3984 45.52 35.5984 46.8 37.1984 46.8H39.2784C40.8784 46.8 42.0784 45.52 42.2384 43.92V40.8C42.2384 40.24 41.7584 39.84 41.2784 39.84Z" fill="black"/>
<path d="M41.2784 31.2C40.7184 31.2 40.3184 31.68 40.3184 32.16V35.28C40.3184 35.84 39.9184 36.24 39.3584 36.24H37.2784C36.7184 36.24 36.3184 35.84 36.3184 35.28V32.16C36.3184 31.6 35.8384 31.2 35.3584 31.2C34.7984 31.2 34.3984 31.68 34.3984 32.16V35.28C34.3984 36.8 35.5984 38.08 37.1984 38.08H39.2784C40.8784 38.08 42.0784 36.8 42.2384 35.28V32.16C42.2384 31.6 41.7584 31.2 41.2784 31.2Z" fill="black"/>
<path d="M41.2784 22.5601C40.7184 22.5601 40.3184 23.0401 40.3184 23.5201V26.6401C40.3184 27.2001 39.9184 27.6001 39.3584 27.6001H37.2784C36.7184 27.6001 36.3184 27.2001 36.3184 26.6401V23.5201C36.3184 22.9601 35.8384 22.5601 35.3584 22.5601C34.7984 22.5601 34.3984 23.0401 34.3984 23.5201V26.6401C34.3984 28.1601 35.5984 29.4401 37.1984 29.4401H39.2784C40.8784 29.4401 42.0784 28.1601 42.2384 26.6401V23.5201C42.2384 22.9601 41.7584 22.5601 41.2784 22.5601Z" fill="black"/>
<path d="M41.2784 14.64C40.7184 14.64 40.3184 15.12 40.3184 15.6V18.72C40.3184 19.28 39.9184 19.68 39.3584 19.68H37.2784C36.7184 19.68 36.3184 19.28 36.3184 18.72V15.6C36.3184 15.04 35.8384 14.64 35.3584 14.64C34.7984 14.64 34.3984 15.12 34.3984 15.6V18.72C34.3984 20.24 35.5984 21.52 37.1984 21.52H39.2784C40.8784 21.52 42.0784 20.24 42.2384 18.72V15.6C42.2384 15.04 41.7584 14.64 41.2784 14.64Z" fill="black"/>
<path d="M41.2784 6.71997C40.7184 6.71997 40.3184 7.19997 40.3184 7.67997V10.8C40.3184 11.36 39.9184 11.76 39.3584 11.76H37.2784C36.7184 11.76 36.3184 11.36 36.3184 10.8V7.67997C36.3184 7.11997 35.8384 6.71997 35.3584 6.71997C34.7984 6.71997 34.3984 7.19997 34.3984 7.67997V10.8C34.3984 12.32 35.5984 13.6 37.1984 13.6H39.2784C40.8784 13.6 42.0784 12.4 42.2384 10.8V7.67997C42.2384 7.11997 41.7584 6.71997 41.2784 6.71997Z" fill="black"/>
<path d="M37.4391 5.68H39.0391C40.3191 5.68 41.4391 4.64 41.4391 3.36V0.96C41.4391 0.4 41.0391 0 40.4791 0C39.9191 0 39.5191 0.48 39.5191 0.96V3.36C39.5191 3.6 39.2791 3.84 39.0391 3.84H37.4391C37.1991 3.84 36.9591 3.6 36.9591 3.36V0.96C36.9591 0.4 36.4791 0 35.9991 0C35.5191 0 35.0391 0.4 35.0391 0.88V3.28C35.0391 4.64 36.1591 5.68 37.4391 5.68Z" fill="black"/>
<path d="M72.5594 28.56C72.0794 23.44 71.2794 17.6 67.1994 13.92C64.7194 11.76 61.5994 10.88 58.8794 10.08L57.9194 9.84003C55.5194 9.28004 53.0394 8.64003 50.9594 7.36003C48.4794 5.92003 46.9594 3.52003 47.0394 1.36003C47.1194 1.12003 46.9594 0.800034 46.7994 0.560034C46.5594 0.320034 46.2394 0.160034 45.9994 0.160034C45.3594 0.160034 44.7994 0.640034 44.7994 1.20003C44.5594 5.76003 48.5594 8.56003 49.7594 9.28004C52.0794 10.72 54.6394 11.36 57.1994 12L58.3194 12.24C60.9594 12.88 63.7594 13.76 65.7594 15.52C69.1194 18.56 69.8394 23.6 70.3194 28.8V28.96L70.3994 29.2C72.8794 35.52 74.3194 43.44 74.2394 50.88C74.1594 53.68 73.8394 56.08 73.3594 58.4C73.2794 58.72 73.3594 59.04 73.5994 59.28C73.7594 59.52 73.9994 59.68 74.3194 59.68H74.4794C75.0394 59.68 75.5194 59.28 75.5994 58.8C76.1594 55.92 76.4794 53.28 76.4794 50.88C76.5594 43.52 75.1194 35.36 72.5594 28.56Z" fill="black"/>
<path d="M64.1613 50.5601C64.0813 50.3201 63.9213 50.0001 63.6813 49.8401C63.4413 49.6801 63.0413 49.6001 62.8013 49.7601C62.5613 49.8401 62.2413 50.0001 62.0813 50.2401C61.9213 50.4801 61.8413 50.8801 62.0013 51.1201L64.1613 58.9601C64.2413 59.6001 64.8013 59.8401 65.2013 59.8401C65.2813 59.8401 65.4413 59.8401 65.5213 59.7601C65.7613 59.6801 66.0013 59.5201 66.1613 59.2801C66.3213 59.0401 66.4013 58.6401 66.2413 58.4001L64.1613 50.5601Z" fill="black"/>
<path d="M30.4793 0.160034C29.9193 0.160034 29.4393 0.720034 29.4393 1.36003C29.5193 3.52003 27.9193 5.92003 25.5193 7.44003C23.4393 8.56003 21.0393 9.20003 18.7193 9.84003L17.5193 10.16C14.7993 10.8 11.6793 11.76 9.19926 14C5.27926 17.52 4.31926 23.12 3.91926 28.64C1.35926 35.36 -0.080741 43.44 -0.000741027 51.04C-0.000741027 53.52 0.319259 56.24 0.879259 58.96C0.959259 59.44 1.43926 59.84 1.91926 59.84L1.99926 59.92H2.07926C2.63926 59.84 3.03926 59.2 2.95926 58.56C2.39926 55.84 2.07926 53.44 2.07926 51.12C1.99926 43.68 3.35926 35.76 5.91926 29.44L5.99926 29.2V29.04C6.47926 23.76 7.19926 18.72 10.5593 15.76C12.5593 14 15.3593 13.12 17.9993 12.48L19.1193 12.16C21.5993 11.52 24.2393 10.88 26.5593 9.44003C27.7593 8.72003 31.7593 5.92003 31.5193 1.36003C31.5993 0.640034 31.1193 0.160034 30.4793 0.160034Z" fill="black"/>
<path d="M13.7599 49.28C13.4399 49.2 13.1999 49.2 12.8799 49.36C12.6399 49.52 12.4799 49.76 12.3199 50L10.0799 58.4C9.99989 58.72 9.99989 58.96 10.1599 59.28C10.3199 59.52 10.5599 59.68 10.7999 59.84H11.1199C11.5999 59.84 12.0799 59.6 12.1599 58.96L14.4799 50.64C14.5599 50.32 14.5599 50.08 14.3999 49.76C14.3199 49.52 14.0799 49.36 13.7599 49.28Z" fill="black"/>
<path d="M57.7603 74.08C56.7203 69.12 56.7203 64.4 57.7603 59.84C57.7603 59.68 57.8403 59.44 57.9203 59.28C58.0003 59.04 58.0803 58.88 58.0803 58.64C60.0803 51.04 62.4003 43.44 64.9603 36.16C65.1203 35.6 64.8803 34.88 64.2403 34.72C64.0003 34.64 63.6803 34.64 63.3603 34.8C63.0403 34.96 62.8803 35.12 62.8003 35.44C60.2403 42.8 57.9203 50.4 55.9203 58C55.7603 58.48 55.6803 58.88 55.6003 59.28C54.5603 64.16 54.5603 69.2 55.6003 74.48L56.4803 78.72C56.6403 79.2 57.0403 79.52 57.5203 79.52V79.68H57.7603C58.3203 79.6 58.7203 78.96 58.6403 78.32L57.7603 74.08ZM57.6803 79.6V79.44V79.6Z" fill="black"/>
<path d="M20.8776 60.0799C20.7176 59.3599 20.5576 58.6399 20.3976 57.9199C18.3976 50.3999 16.0776 42.7999 13.5176 35.3599C13.3576 34.7999 12.6376 34.4799 12.0776 34.6399C11.5176 34.7999 11.1976 35.5199 11.3576 36.0799C13.9176 43.3599 16.2376 50.9599 18.2376 58.5599C18.4776 59.3599 18.6376 60.1599 18.7976 60.9599C19.5976 64.7999 19.5176 69.0399 18.7176 73.5999L17.8376 78.2399C17.7576 78.5599 17.7576 78.8799 17.9976 79.1199C18.1576 79.3599 18.4776 79.5999 18.7976 79.5999H18.9576C19.5176 79.5999 20.0776 79.2799 19.9976 78.4799L20.8776 73.8399C21.7576 69.2799 21.7576 64.7199 20.9576 60.3999L20.8776 60.0799Z" fill="black"/>
</g>
<defs>
<clipPath id="clip0_1076_402">
<rect width="76.48" height="80" fill="white"/>
</clipPath>
</defs>
</svg>
