<svg width="596" height="499" viewBox="0 0 596 499" fill="none" xmlns="http://www.w3.org/2000/svg">
<g clip-path="url(#clip0_1109_7782)">
<path d="M-79.6649 499.863C-79.87 499.863 -80.075 499.794 -80.2117 499.726C-80.8952 499.384 -81.1686 498.564 -80.8952 497.881C-73.24 481.613 -61.0737 467.943 -44.738 457.212C-30.6578 447.985 -13.0235 440.671 7.68665 435.545C43.8439 426.523 82.9402 425.224 119.781 425.156C119.918 425.156 120.054 425.156 120.259 425.156C135.228 425.156 151.085 426.865 166.464 428.505C203.032 432.401 240.829 436.434 273.364 419.346C284.3 413.605 297.833 402.669 300.431 383.121C300.567 382.3 300.157 380.865 298.995 378.951C298.654 380.523 298.107 381.959 297.287 383.052C296.193 384.556 294.074 386.196 290.246 385.786C287.786 385.513 285.189 381.959 281.293 376.149C279.515 373.483 277.67 370.749 276.44 369.724C270.425 364.666 263.385 361.795 257.302 359.745C245.887 355.781 236.797 360.155 226.339 365.213C223.332 366.648 220.256 368.152 216.975 369.451C214.378 370.476 211.78 371.569 209.183 372.663C197.632 377.448 185.671 382.369 173.709 386.675C166.122 389.409 159.766 389.887 152.384 390.434C151.222 390.502 150.06 390.571 148.898 390.707C146.848 390.844 144.387 391.323 141.858 391.733C136.663 392.69 130.785 393.715 125.727 392.963C118.892 392.006 114.176 388.999 111.579 384.078C106.999 375.26 110.69 361.659 115.68 351.885C128.12 327.552 147.463 302.604 171.454 279.843L172.206 279.16C176.17 275.401 180.749 271.095 185.26 268.019C185.671 267.745 186.217 267.745 186.696 267.951C187.174 268.224 187.448 268.634 187.379 269.181C187.379 269.591 187.379 269.591 186.696 270.685C160.586 312.583 135.638 363.162 143.84 379.43C145.276 382.232 147.6 383.872 151.017 384.488C150.06 378.404 150.949 373.346 151.701 368.425C151.974 366.58 152.316 364.598 152.521 362.684C153.273 355.644 155.596 348.194 157.715 341.632L158.262 339.855C163.388 323.519 171.659 309.986 180.476 296.384C181.433 294.88 182.458 293.308 183.347 291.805C190.045 281.005 197.017 269.796 211.097 268.976C221.213 268.361 240.829 272.667 251.013 279.98C251.013 279.297 250.877 278.681 250.74 278.066C250.056 275.196 247.869 273.077 244.042 271.573C243.632 271.436 243.358 271.095 243.221 270.753C243.085 270.343 243.153 269.933 243.358 269.591C252.175 255.921 250.262 238.765 243.358 225.642C242.606 225.505 241.786 225.368 240.966 225.437C223.742 225.505 204.74 236.441 187.995 246.078C184.235 248.266 180.681 250.316 177.264 252.162C176.853 252.367 176.307 252.367 175.897 252.093C175.486 251.82 175.213 251.341 175.281 250.863C175.691 240.747 171.112 228.239 167.079 217.166C166.327 215.116 165.576 213.134 164.892 211.151C163.867 208.281 163.115 205.068 162.363 201.924C161.27 197.413 160.176 192.765 158.331 188.938C156.622 185.452 154.503 183.675 151.974 181.693C149.992 180.052 147.736 178.275 145.549 175.336C134.886 160.777 139.534 146.424 146.233 133.027C146.711 132.07 147.394 130.635 148.146 128.995C139.056 135.898 127.641 139.452 111.647 141.161C109.939 141.366 107.888 141.639 105.496 141.913C91.8257 143.69 71.184 146.355 61.615 140.751C51.6358 134.873 55.7368 115.666 58.4709 102.885C59.0177 100.356 59.4961 98.1686 59.7695 96.3915C60.0429 94.7511 60.3163 92.4272 60.7264 89.7615C63.187 71.1019 68.3816 32.2106 84.3072 24.282C88.955 21.9581 94.1497 22.4365 99.686 25.649C100.028 25.854 100.233 26.1274 100.301 26.5375C101.121 29.8184 100.096 33.5093 97.5672 36.4483C96.2002 38.0204 94.4914 39.114 92.7827 39.7291C92.646 40.0709 92.5093 40.3443 92.3726 40.686C97.9089 40.1392 102.693 33.7143 104.06 28.7931C104.197 28.3147 104.539 27.9729 105.017 27.8362C105.496 27.6995 105.974 27.8362 106.316 28.178C111.169 32.6891 111.101 36.7217 110.075 39.2507C107 47.4527 91.484 52.3739 84.7857 52.8524C79.0443 63.9251 79.8645 75.0662 80.753 86.8908C81.3682 95.708 82.0517 104.799 79.7278 113.821C90.5271 110.267 103.924 110.335 109.528 110.608C111.032 110.677 112.262 110.745 113.219 110.813C116.979 111.087 117.73 111.155 123.267 108.695C124.292 108.216 125.317 107.738 126.343 107.259C129.692 105.687 133.178 103.978 137.005 103.432C145.412 102.133 150.88 103.295 153.614 107.054C155.802 110.062 155.87 114.368 154.776 118.947C158.331 114.709 161.543 109.583 164.687 103.432C165.029 102.816 165.712 102.543 166.396 102.748C167.011 103.021 167.421 103.705 167.284 104.32C164.482 116.008 164.824 124.825 168.036 128.926C168.993 122.843 172.752 115.871 175.76 110.335L175.965 109.993C176.102 109.72 176.307 109.446 176.512 109.036C177.947 106.439 181.433 100.287 180.203 97.8268C180.134 97.7585 180.066 97.5534 179.861 97.4167C178.699 100.219 177.264 102.748 175.418 104.662C173.299 106.849 171.249 108.216 168.788 109.036C168.378 109.173 167.831 109.105 167.489 108.763C167.148 108.489 166.943 108.011 167.011 107.533C167.284 105.14 170.565 98.3736 174.324 95.5029C175.691 94.4777 176.99 93.9992 178.22 93.9992C180.476 86.9591 181.159 77.9369 181.091 70.0083C179.177 66.4541 178.084 62.5581 177.947 58.7988C172.411 57.6369 168.446 52.2372 167.763 47.4527C167.421 45.1288 167.9 43.0099 168.993 41.2328C168.993 41.2328 168.993 41.2328 168.925 41.2328C166.533 41.2328 164.209 42.1214 162.5 43.6935C159.766 46.2224 159.082 50.1184 160.449 54.6978C161.133 57.0901 162.363 58.9356 163.457 60.7127C165.712 64.3352 168.105 68.0261 166.396 75.2029C164.687 82.5847 157.92 90.5817 149.992 94.6144C135.912 101.859 108.913 102.953 99.9594 88.3945L99.8911 88.3261C99.1392 87.4376 99.0709 86.7541 99.7544 86.1389C100.438 85.5238 101.121 85.6605 101.942 86.4807C102.01 86.549 102.078 86.6174 102.147 86.7541C102.147 86.7541 102.147 86.8224 102.215 86.8224C108.093 93.3157 118.346 91.0602 126.001 85.9339C134.203 80.4659 136.322 70.4184 138.441 60.781C138.646 59.8925 138.782 59.0722 138.987 58.1837C140.901 49.6399 144.455 39.1823 155.118 33.851C163.183 29.8184 168.31 31.8005 173.094 34.9446C169.198 22.2998 175.76 11.979 183.552 6.57929C194.624 -1.14429 211.644 -1.96449 222.716 11.2955C230.03 20.1126 231.875 32.9625 228.321 50.7335C225.929 62.6948 220.393 82.6531 209.935 83.3366C210.14 83.61 210.208 83.8834 210.208 84.2251C209.935 89.2147 215.95 91.5386 217.795 92.1538C218.479 92.3588 218.889 93.0423 218.684 93.7258C215.13 110.677 205.424 122.16 187.174 130.908C180.339 134.189 174.871 135.214 170.77 133.984C170.907 134.599 171.112 135.146 171.385 135.624C172.752 138.153 175.897 139.726 180.818 140.136C191.412 141.093 204.535 131.797 211.507 122.57C214.309 118.879 215.54 113.342 216.702 107.943C218.684 98.8521 220.803 89.4197 230.645 89.078C231.124 89.078 231.534 89.2831 231.807 89.6248C232.012 89.8982 232.149 90.24 232.08 90.6501C235.566 88.1894 239.667 86.8908 244.178 86.8908C254.363 86.8224 258.464 88.8046 265.64 94.6827C272.612 100.356 274.936 100.971 282.728 102.953L284.642 103.432C297.013 106.576 309.795 109.856 320.184 119.767C320.799 113.547 322.508 107.533 324.148 101.586C326.404 93.6575 328.728 85.4554 328.181 76.98C327.907 72.6056 321.619 58.9356 315.741 52.1689C315.536 53.1941 314.716 54.4244 311.777 55.0396C306.514 56.1332 296.808 54.5611 294.142 49.845C293.117 47.9995 292.639 44.9921 296.33 40.8227C300.909 35.6965 306.104 33.3726 311.777 33.9194C321.619 34.8763 330.778 44.5137 336.041 53.3308C347.251 71.9904 345.132 100.082 343.218 124.894C342.671 132.344 342.124 139.384 341.988 145.74C341.988 146.287 341.646 146.834 341.099 146.971C330.095 151.003 310.136 145.262 298.175 141.844C297.15 141.571 296.125 141.229 295.168 141.024C286.077 138.427 264.752 131.523 257.848 121.271C250.467 126.944 245.819 136.376 241.786 144.783C241.171 146.014 240.556 147.244 240.009 148.406C239.736 148.953 239.052 149.295 238.437 149.089C236.66 148.611 235.019 147.859 233.584 146.902C236.591 152.575 238.642 158.043 237.002 163.511C235.908 167.134 234.404 170.278 232.901 173.285C230.372 178.48 227.979 183.333 228.048 190.031C228.116 201.241 232.422 206.367 238.984 214.159L239.804 215.116C241.854 217.508 243.7 220.242 245.272 223.113C255.388 225.983 262.291 238.833 264.273 248.334C266.871 260.842 261.061 271.641 255.456 282.167L254.431 284.081C254.226 284.491 253.816 284.765 253.406 284.765C253.337 284.765 253.201 284.765 253.132 284.765C250.535 294.129 241.034 304.996 234.268 312.788C232.354 314.975 230.713 316.889 229.62 318.325C227.638 320.922 225.792 322.972 224.015 324.613C230.85 322.972 239.257 321.4 247.049 319.965C256.208 318.256 264.888 316.616 266.871 315.659C268.238 314.975 271.177 312.173 274.594 308.892C283.958 299.938 298.107 286.405 308.906 287.567C309.111 287.567 309.385 287.704 309.521 287.84C314.853 291.668 318.065 298.64 321.756 306.773C323.875 311.353 325.994 316.069 328.796 320.785C338.707 337.599 351.078 358.583 340.826 379.703C340.621 380.113 340.21 380.455 339.664 380.455C338.228 380.523 336.998 380.318 335.973 379.771C335.973 380.318 335.973 380.797 335.973 381.344C335.904 399.388 343.423 407.248 360.237 417.979C402.819 445.114 451.416 407.863 465.291 395.765C484.088 379.43 498.578 358.925 512.521 339.103C525.713 320.375 539.383 301.032 556.812 284.901C583.811 259.885 636.167 250.385 665.831 275.059C670.82 279.16 675.947 284.286 676.288 290.711C676.357 291.463 675.742 292.146 674.99 292.146C674.238 292.215 673.554 291.6 673.554 290.848C673.213 285.448 668.565 280.869 664.054 277.109C650.794 266.037 631.724 261.457 610.331 264.055C590.714 266.447 571.439 274.991 558.589 286.815C541.365 302.741 527.832 321.947 514.709 340.538C500.628 360.497 486.07 381.07 467 397.679C451.006 411.623 432.825 421.944 415.806 426.796C394.412 432.88 375.206 430.624 358.665 420.166C343.696 410.666 333.102 402.259 333.17 381.275C333.17 379.908 333.17 378.609 333.102 377.311C331.53 375.26 330.505 372.39 329.548 369.792C328.591 367.263 327.771 364.871 326.54 363.367C322.576 358.309 317.108 356.054 311.298 353.662C310.41 353.252 309.453 352.91 308.496 352.5C306.651 351.68 303.985 351.201 301.114 350.654C298.107 350.039 295.099 349.492 292.57 348.467C292.844 348.672 293.049 348.945 293.117 349.151C295.646 354.892 299.269 366.17 299.2 374.714C301.593 377.858 303.301 381.07 302.96 383.531C300.841 399.661 290.725 413.263 274.458 421.807C241.171 439.304 202.963 435.203 165.986 431.239C149.855 429.53 134.545 427.89 119.644 427.89C82.9402 427.958 44.1173 429.257 8.16509 438.211C-35.579 449.079 -64.7646 469.584 -78.6397 499.043C-78.6397 499.589 -79.1181 499.863 -79.6649 499.863ZM181.023 274.786C178.631 276.836 176.307 279.023 174.188 281.074L173.436 281.757C149.65 304.313 130.512 328.987 118.209 353.046C113.493 362.205 110.007 374.782 114.108 382.711C116.227 386.812 120.328 389.34 126.206 390.161C130.854 390.844 136.458 389.819 141.448 388.93C144.114 388.452 146.574 388.042 148.761 387.837C149.992 387.768 151.154 387.632 152.247 387.563C159.424 387.017 165.644 386.606 172.821 384.009C184.714 379.703 196.607 374.782 208.158 370.066C210.755 368.972 213.352 367.947 215.95 366.853C219.162 365.555 222.238 364.051 225.177 362.684C235.771 357.626 245.75 352.841 258.259 357.147C264.547 359.335 271.86 362.274 278.285 367.673C279.789 368.904 281.566 371.569 283.616 374.645C285.53 377.516 289.153 382.916 290.588 383.052C292.639 383.257 294.142 382.779 295.168 381.412C296.125 380.113 296.603 378.063 296.74 375.602C295.578 374.098 294.142 372.458 292.297 370.612C283.48 361.59 270.357 352.431 262.77 351.133C259.489 351.269 259.284 350.996 258.942 350.176C258.805 349.766 258.805 349.356 259.01 348.946C259.215 348.604 259.626 348.33 260.036 348.262C260.924 348.194 261.881 348.194 262.838 348.33C264.615 348.262 267.144 348.125 269.468 347.989C283.138 347.168 288.948 347.1 291.477 347.784C290.383 347.237 289.495 346.69 288.743 345.938C285.189 342.452 284.915 335.549 284.642 329.534C284.505 326.663 284.368 323.929 283.958 321.879C282.181 313.54 282.66 312.857 288.264 307.594C289.084 306.842 290.041 305.953 291.067 304.928C292.365 303.698 293.391 302.536 294.279 301.579C298.243 297.204 300.431 295.359 306.924 300.759C317.997 309.986 323.26 323.451 327.839 335.275C332.897 348.33 335.426 361.112 335.836 376.217C336.656 377.037 337.545 377.516 338.638 377.653C346.909 359.608 337.955 341.837 326.335 322.152C323.465 317.299 321.277 312.515 319.159 307.867C315.673 300.28 312.734 293.719 308.154 290.301C298.585 289.618 284.71 302.946 276.371 310.874C272.475 314.565 269.673 317.231 267.964 318.12C265.709 319.213 258.669 320.58 247.391 322.699C237.07 324.613 225.655 326.732 218.41 328.919C215.813 330.559 213.011 331.721 209.662 332.952C206.654 335.139 203.852 337.941 201.186 340.607C195.923 345.938 190.455 351.543 182.732 352.636C182.321 352.705 181.98 352.568 181.638 352.363C181.365 352.09 181.159 351.748 181.159 351.406C180.613 340.88 193.941 335.891 201.938 332.883L202.416 332.747C203.442 332.336 204.399 331.995 205.355 331.653C206.381 331.243 207.406 330.901 208.363 330.559C210.072 329.397 211.849 328.372 213.831 327.62C214.856 327.21 216.018 326.868 217.317 326.458C220.598 324.408 223.605 321.537 227.364 316.753C228.526 315.249 230.167 313.335 232.149 311.148C238.642 303.698 248.758 292.146 250.672 283.193C241.718 275.742 221.281 271.095 211.302 271.71C198.657 272.462 192.369 282.577 185.739 293.24C184.782 294.744 183.825 296.384 182.8 297.888C174.119 311.285 165.917 324.681 160.859 340.675L160.313 342.452C158.262 348.877 156.007 356.191 155.255 363.026C155.05 365.076 154.708 367.058 154.366 368.904C153.478 374.303 152.657 379.43 153.956 385.855C154.024 386.265 153.956 386.743 153.614 387.017C153.341 387.358 152.931 387.495 152.521 387.495C147.189 387.085 143.43 384.829 141.311 380.728C131.264 360.633 165.507 300.28 181.023 274.786ZM270.015 350.791C278.353 354.687 288.059 362.479 294.211 368.767C294.963 369.519 295.783 370.407 296.535 371.228C295.851 364.529 293.527 356.396 290.93 350.586C288.743 349.697 276.371 350.449 270.015 350.791ZM300.636 300.212C299.337 300.212 298.312 301.374 296.398 303.493C295.441 304.518 294.416 305.68 293.049 306.978C291.955 308.004 290.998 308.892 290.178 309.644C285.12 314.292 285.12 314.292 286.624 321.332C287.102 323.588 287.239 326.458 287.376 329.466C287.581 335.002 287.854 341.29 290.657 344.093C292.775 346.143 297.56 347.1 301.866 347.92C304.805 348.535 307.607 349.082 309.795 349.971C310.751 350.381 311.64 350.723 312.529 351.133C318.68 353.662 324.49 356.054 328.864 361.659C330.3 363.504 331.325 366.238 332.282 368.835C332.555 369.519 332.76 370.134 333.034 370.749C332.213 358.309 329.753 347.373 325.447 336.301C320.936 324.75 315.809 311.695 305.284 302.877C303.028 301.1 301.729 300.212 300.636 300.212ZM202.416 335.754C195.581 338.351 185.124 342.452 184.099 349.697C190.113 348.194 194.624 343.614 199.409 338.761C200.366 337.736 201.391 336.711 202.416 335.754ZM246.639 269.659C250.398 271.436 252.722 274.034 253.474 277.383C253.611 278.066 253.747 278.75 253.816 279.502C258.942 269.933 263.863 259.954 261.608 248.949C260.036 241.294 254.704 230.768 247.186 226.872C253.201 239.995 254.568 256.263 246.639 269.659ZM152.931 124.894C151.769 128.038 150.265 131.182 148.83 134.121C141.585 148.679 138.646 160.914 147.941 173.559C149.855 176.225 151.906 177.797 153.888 179.437C156.553 181.556 159.082 183.606 160.996 187.639C162.978 191.74 164.14 196.525 165.234 201.172C165.986 204.385 166.738 207.392 167.694 210.126C168.378 212.04 169.13 214.091 169.813 216.073C173.641 226.53 177.947 238.287 178.152 248.471C180.886 246.967 183.757 245.327 186.764 243.549C203.852 233.707 223.195 222.634 241.103 222.566C241.376 222.566 241.581 222.566 241.854 222.566C240.624 220.515 239.257 218.602 237.753 216.893L236.933 215.936C230.235 208.007 225.45 202.198 225.382 190.031C225.314 182.718 227.979 177.318 230.508 172.055C231.944 169.116 233.447 166.109 234.473 162.691C236.318 156.54 232.422 149.91 228.253 142.801C224.63 136.65 220.939 130.293 220.187 123.39C219.026 112.112 222.17 100.903 228.253 94.0676L228.321 93.9992C228.458 93.3157 228.663 92.7006 228.8 92.1538C222.716 93.5208 221.144 100.561 219.367 108.626C218.137 114.299 216.838 120.177 213.694 124.278C206.449 133.779 193.599 142.938 182.321 142.938C181.706 142.938 181.159 142.938 180.544 142.87C174.666 142.323 170.77 140.341 168.993 136.923C168.31 135.556 167.9 134.121 167.831 132.549C167.695 132.48 167.558 132.344 167.421 132.275C162.5 128.311 162.021 120.041 163.047 111.975C159.903 117.033 156.622 121.339 152.931 124.894ZM230.782 95.3662C227.433 108.626 225.109 129.2 230.918 139.726C232.696 142.87 235.088 144.988 238.095 146.082C238.505 145.262 238.915 144.373 239.394 143.485C243.837 134.394 248.895 124.073 257.575 118.127C257.917 117.922 258.327 117.853 258.669 117.922C259.079 117.99 259.352 118.264 259.557 118.605C264.888 128.653 286.829 135.761 295.988 138.359C296.945 138.632 297.902 138.905 298.995 139.247C310.273 142.46 328.933 147.859 339.322 144.715C339.459 138.564 340.005 131.797 340.552 124.688C342.398 100.287 344.517 72.6739 333.786 54.7662C328.864 46.5642 320.457 37.5419 311.572 36.7217C306.856 36.2433 302.413 38.2938 298.448 42.7365C296.535 44.8554 295.851 46.7009 296.398 48.1362C297.218 50.3234 301.114 52.1005 305.967 52.579C310.205 52.9891 312.665 52.2372 313.075 51.7588C312.939 51.4854 312.255 50.4601 308.564 48.683C308.086 48.478 307.812 47.9995 307.812 47.5211C307.812 47.0426 308.086 46.4958 308.496 46.2908C309.453 45.744 311.093 45.3339 313.349 46.5642C320.799 50.5968 330.573 70.8285 330.983 76.9117C331.53 85.7972 329.138 94.2726 326.814 102.406C324.9 109.105 322.986 116.008 322.713 122.98C322.713 123.527 322.371 124.005 321.824 124.21C321.277 124.415 320.731 124.278 320.321 123.868C310.068 112.796 296.808 109.378 283.958 106.097L282.044 105.619C274.184 103.637 271.245 102.885 263.863 96.8016C257.165 91.3336 253.542 89.6248 244.178 89.6932C238.915 89.6932 234.404 91.607 230.782 95.3662ZM90.4587 25.5123C88.75 25.5123 87.1096 25.9224 85.5375 26.6742C70.9106 33.9194 65.716 73.2207 63.4604 90.0349C63.1187 92.7689 62.7769 95.0928 62.5035 96.7332C62.2301 98.5787 61.7517 100.766 61.2049 103.363C58.8126 114.641 54.8483 133.437 63.1187 138.29C71.8675 143.416 92.7827 140.751 105.291 139.11C107.683 138.837 109.734 138.564 111.511 138.359C129.487 136.376 141.243 132.275 150.539 123.458C152.521 117.99 153.888 111.907 151.427 108.558C149.377 105.755 144.66 104.867 137.415 105.961C133.998 106.507 130.854 108.011 127.505 109.583C126.479 110.062 125.454 110.608 124.36 111.018C118.482 113.684 117.252 113.684 113.014 113.342C111.989 113.274 110.895 113.206 109.392 113.137C103.582 112.864 88.8183 112.796 78.2241 117.102C77.7456 117.307 77.1988 117.17 76.7887 116.828C76.3786 116.486 76.2419 115.94 76.447 115.393C79.4544 105.96 78.7709 96.2548 78.0874 86.8224C77.1988 74.9295 76.3103 62.6265 82.8035 50.6652C83.0086 50.2551 83.487 49.9817 83.9655 49.9817C90.5954 49.845 105.086 44.6504 107.546 38.0887C108.367 35.9699 107.82 33.7827 105.974 31.5271C103.377 37.747 97.0887 44.4453 89.8436 43.1466C89.3651 43.0783 89.0234 42.7365 88.8183 42.3264C88.6133 41.9163 88.6816 41.3695 88.955 41.0278C89.1601 40.7544 89.3651 40.4126 89.5018 40.1392C89.2968 40.1392 89.0918 40.1392 88.8867 40.0709C88.2032 40.0025 87.6564 39.3874 87.6564 38.6355C87.7931 34.0561 89.5702 32.0056 93.7396 31.5271C94.218 31.4588 94.6965 31.6638 95.0382 32.0739C95.3116 32.484 95.38 32.9625 95.1749 33.4409C94.9015 34.1244 94.5598 34.8763 94.2864 35.6965C94.6965 35.3547 95.1749 34.9446 95.5167 34.4662C97.2938 32.4157 98.114 29.8867 97.7722 27.5628C95.1749 26.1958 92.7827 25.5123 90.4587 25.5123ZM226.749 101.108C223.537 107.259 222.101 115.324 222.853 123.185C223.195 126.192 224.152 129.2 225.45 132.139C223.673 122.296 224.972 110.267 226.749 101.108ZM170.497 130.977C173.914 132.549 179.109 131.729 185.944 128.448C202.895 120.246 212.122 109.72 215.676 94.341C210.892 92.4955 207.953 89.3514 207.474 85.6605C200.434 86.1389 193.257 83.4733 187.448 78.2787C186.081 77.0484 184.85 75.6814 183.688 74.246C183.483 81.2861 182.663 88.6679 180.749 94.8194C181.706 95.3662 182.253 96.0497 182.526 96.6649C184.235 100.151 181.501 105.619 178.836 110.472C178.631 110.813 178.494 111.087 178.357 111.36L178.152 111.702C175.076 117.238 170.839 125.03 170.497 130.977ZM177.058 96.9383C176.648 97.1433 176.238 97.3484 175.965 97.6218C173.846 99.2622 171.796 102.543 170.702 105.072C171.59 104.457 172.479 103.705 173.436 102.748C174.803 101.176 176.033 99.1938 177.058 96.9383ZM109.187 93.3157C112.946 95.4346 117.799 96.6649 123.404 97.0066C132.221 97.5534 141.926 95.708 148.761 92.2221C156.007 88.5312 162.158 81.2861 163.73 74.5877C165.166 68.5046 163.32 65.5655 161.133 62.2164C159.903 60.2342 158.604 58.252 157.784 55.518C156.143 49.9817 157.169 44.9921 160.586 41.7113C163.388 39.0456 167.489 37.952 171.385 38.7039C171.796 38.4305 172.206 38.1571 172.684 37.952C167.831 34.5345 163.73 32.5524 156.28 36.2433C146.711 41.0278 143.499 50.2551 141.585 58.7305C141.38 59.5507 141.243 60.4393 141.038 61.2595C138.919 70.9652 136.527 82.0379 127.436 88.1211C121.968 91.8804 115.202 94.1359 109.187 93.3157ZM183.757 69.3248C185.192 71.7854 187.038 74.1093 189.293 76.1598C194.83 81.1494 201.733 83.5416 208.295 82.7898C208.089 82.5164 207.953 82.1746 208.021 81.7645C208.636 76.0915 211.985 71.2386 215.266 66.5224C217.59 63.1049 220.051 59.6191 221.349 55.8598C224.083 48.1362 225.519 33.1675 221.213 25.3756C217.795 19.2241 212.601 16.4217 206.107 17.3786C195.513 18.9507 182.868 30.7069 180.613 41.0961C180.544 41.5062 180.203 41.9163 179.792 42.053C179.382 42.2581 178.904 42.1897 178.562 41.9163C178.425 41.848 178.357 41.7796 178.289 41.7113C178.289 41.7796 178.22 41.7796 178.152 41.848C178.084 41.9163 178.015 41.9847 177.947 41.9847C180.681 44.582 182.458 48.4096 182.937 53.0574C183.278 57.0901 183.757 62.8999 183.757 69.3248ZM224.835 53.6726C224.562 54.8345 224.22 55.8598 223.878 56.8167C222.443 60.8494 219.914 64.5403 217.453 68.0945C214.651 72.1955 211.985 76.0915 210.96 80.3292C216.36 78.6888 221.418 69.0514 224.835 53.6726ZM172.069 41.7113C170.36 43.42 170.292 45.6756 170.497 47.0426C171.044 51.1436 174.803 55.7914 179.382 56.2015C179.861 56.2699 180.203 56.4749 180.476 56.885C180.339 55.518 180.271 54.4244 180.134 53.4675C179.519 47.6578 176.717 43.4884 172.479 41.9163C172.342 41.848 172.206 41.7796 172.069 41.7113ZM208.568 14.5079C213.489 14.5079 219.367 16.4901 223.605 24.0769C227.159 30.5019 227.228 40.6177 225.929 48.683C228.936 32.5524 227.159 20.9328 220.598 13.0042C210.55 0.974568 195.171 1.79477 185.055 8.76649C177.4 14.0978 171.044 24.7604 177.127 37.747C177.537 38.0204 177.947 38.3621 178.425 38.6355C181.911 27.6311 194.556 16.3534 205.697 14.713C206.586 14.5763 207.611 14.5079 208.568 14.5079ZM91.6891 35.0813C91.0739 35.5598 90.7322 36.3116 90.5955 37.4052C90.6638 37.4052 90.8005 37.4052 90.8689 37.3369C91.1423 36.7217 91.3473 36.0382 91.5524 35.4231C91.5524 35.2864 91.6207 35.218 91.6891 35.0813Z" fill="#DDDDDD"/>
</g>
<defs>
<clipPath id="clip0_1109_7782">
<rect width="596" height="499" fill="white"/>
</clipPath>
</defs>
</svg>
