<svg width="20" height="20" viewBox="0 0 20 20" fill="none" xmlns="http://www.w3.org/2000/svg">
<path d="M9.99967 2.5C8.23221 2.50186 6.53774 3.12331 5.28795 4.22803C4.03817 5.33275 3.33511 6.83054 3.33301 8.39284C3.33301 13.435 9.39361 17.2436 9.65164 17.4032C9.7537 17.4662 9.87519 17.5 9.99967 17.5C10.1242 17.5 10.2456 17.4662 10.3477 17.4032C10.6057 17.2436 16.6663 13.435 16.6663 8.39284C16.6642 6.83054 15.9612 5.33275 14.7114 4.22803C13.4616 3.12331 11.7671 2.50186 9.99967 2.5ZM10.0001 6.25019C10.4796 6.25019 10.9483 6.37587 11.347 6.61133C11.7456 6.84679 12.0564 7.18146 12.2398 7.57301C12.4233 7.96457 12.4713 8.39542 12.3778 8.8111C12.2842 9.22677 12.0534 9.60859 11.7143 9.90827C11.3753 10.208 10.9433 10.412 10.4731 10.4947C10.0028 10.5774 9.51538 10.535 9.07241 10.3728C8.62944 10.2106 8.25082 9.93594 7.98445 9.58355C7.71807 9.23116 7.57589 8.81686 7.57589 8.39305C7.57589 7.82473 7.8313 7.27968 8.28593 6.87782C8.74056 6.47596 9.35718 6.25019 10.0001 6.25019Z" fill="#95A0AF"/>
</svg>
