<svg width="24" height="24" viewBox="0 0 24 24" fill="none" xmlns="http://www.w3.org/2000/svg">
<path d="M7.09113 10.3571C6.89102 10.3571 6.69899 10.3876 6.50786 10.4154C6.56978 10.2072 6.63349 9.99543 6.73579 9.8052C6.83808 9.52882 6.99781 9.28923 7.15663 9.04785C7.28944 8.78673 7.52364 8.60995 7.69593 8.38652C7.87629 8.16937 8.12216 8.0249 8.31688 7.84453C8.50801 7.65609 8.75836 7.56187 8.95757 7.42907C9.16575 7.30972 9.34701 7.17782 9.54084 7.115L10.0245 6.9158L10.4498 6.73902L10.0146 5L9.47892 5.12922C9.30753 5.17229 9.09845 5.22254 8.86066 5.28266C8.61748 5.32752 8.35816 5.45046 8.06922 5.56263C7.78387 5.69005 7.45365 5.77619 7.14676 5.98078C6.83808 6.1764 6.48184 6.33971 6.16778 6.60173C5.86358 6.87183 5.49657 7.10603 5.22558 7.44971C4.92946 7.77095 4.63693 8.10835 4.40991 8.4924C4.14699 8.85851 3.96842 9.26052 3.77998 9.65803C3.60949 10.0556 3.4722 10.462 3.36003 10.8569C3.14737 11.6483 3.05225 12.4003 3.01546 13.0437C2.98495 13.6879 3.0029 14.2236 3.04058 14.6113C3.05404 14.7943 3.07917 14.972 3.09712 15.095L3.11955 15.2457L3.14288 15.2403C3.30248 15.9858 3.66988 16.671 4.20259 17.2164C4.7353 17.7618 5.41154 18.1453 6.15309 18.3225C6.89465 18.4997 7.6712 18.4633 8.39293 18.2175C9.11466 17.9718 9.75207 17.5267 10.2314 16.9338C10.7108 16.341 11.0125 15.6245 11.1017 14.8673C11.1908 14.1101 11.0638 13.3431 10.7353 12.6551C10.4068 11.9671 9.8902 11.3862 9.2453 10.9795C8.6004 10.5728 7.85355 10.357 7.09113 10.3571V10.3571ZM16.9617 10.3571C16.7616 10.3571 16.5696 10.3876 16.3785 10.4154C16.4404 10.2072 16.5041 9.99543 16.6064 9.8052C16.7087 9.52882 16.8684 9.28923 17.0273 9.04785C17.1601 8.78673 17.3943 8.60995 17.5665 8.38652C17.7469 8.16937 17.9928 8.0249 18.1875 7.84453C18.3786 7.65609 18.629 7.56187 18.8282 7.42907C19.0364 7.30972 19.2176 7.17782 19.4115 7.115L19.8951 6.9158L20.3204 6.73902L19.8852 5L19.3495 5.12922C19.1781 5.17229 18.9691 5.22254 18.7313 5.28266C18.4881 5.32752 18.2288 5.45046 17.9398 5.56263C17.6554 5.69094 17.3243 5.77619 17.0174 5.98168C16.7087 6.1773 16.3525 6.34061 16.0384 6.60263C15.7342 6.87273 15.3672 7.10693 15.0962 7.44971C14.8001 7.77095 14.5076 8.10835 14.2805 8.4924C14.0176 8.85851 13.839 9.26052 13.6506 9.65803C13.4801 10.0556 13.3428 10.462 13.2307 10.8569C13.018 11.6483 12.9229 12.4003 12.8861 13.0437C12.8556 13.6879 12.8735 14.2236 12.9112 14.6113C12.9247 14.7943 12.9498 14.972 12.9677 15.095L12.9902 15.2457L13.0135 15.2403C13.1731 15.9858 13.5405 16.671 14.0732 17.2164C14.6059 17.7618 15.2822 18.1453 16.0237 18.3225C16.7653 18.4997 17.5418 18.4633 18.2636 18.2175C18.9853 17.9718 19.6227 17.5267 20.102 16.9338C20.5814 16.341 20.8831 15.6245 20.9723 14.8673C21.0615 14.1101 20.9344 13.3431 20.6059 12.6551C20.2774 11.9671 19.7608 11.3862 19.1159 10.9795C18.471 10.5728 17.7242 10.357 16.9617 10.3571V10.3571Z" fill="#020818"/>
</svg>
