<svg width="32" height="32" viewBox="0 0 32 32" fill="none" xmlns="http://www.w3.org/2000/svg">
<path fill-rule="evenodd" clip-rule="evenodd" d="M12.7141 6.90173C8.99329 8.24177 6.33301 11.8029 6.33301 15.9854C6.33301 21.3161 10.6544 25.6375 15.9851 25.6375C21.3157 25.6375 25.6371 21.3161 25.6371 15.9854C25.6371 10.6548 21.3158 6.33339 15.9851 6.33337C15.6225 6.33338 15.2748 6.47741 15.0184 6.73379C14.762 6.99018 14.618 7.33791 14.618 7.7005C14.618 8.06308 14.762 8.41081 15.0184 8.6672C15.2748 8.92358 15.6225 9.06762 15.9851 9.06762C16.5374 9.06762 16.9851 9.51534 16.9851 10.0676C16.9851 10.6199 16.5374 11.0676 15.9851 11.0676C15.0921 11.0676 14.2356 10.7129 13.6042 10.0814C12.9727 9.44995 12.618 8.59351 12.618 7.7005C12.618 7.4291 12.6507 7.16108 12.7141 6.90173ZM4.33301 15.9854C4.33301 9.55018 9.54981 4.33337 15.9851 4.33337C22.4203 4.33337 27.6371 9.55018 27.6371 15.9854C27.6371 22.4207 22.4203 27.6375 15.9851 27.6375C9.54981 27.6375 4.33301 22.4207 4.33301 15.9854ZM11.4344 13.6183C11.4344 13.0661 11.8821 12.6183 12.4344 12.6183H12.4451C12.9974 12.6183 13.4451 13.0661 13.4451 13.6183C13.4451 14.1706 12.9974 14.6183 12.4451 14.6183H12.4344C11.8821 14.6183 11.4344 14.1706 11.4344 13.6183ZM19.5356 12.6183C18.9834 12.6183 18.5356 13.0661 18.5356 13.6183C18.5356 14.1706 18.9834 14.6183 19.5356 14.6183H19.5463C20.0986 14.6183 20.5463 14.1706 20.5463 13.6183C20.5463 13.0661 20.0986 12.6183 19.5463 12.6183H19.5356ZM12.3262 18.8217C12.7207 18.4352 13.3539 18.4417 13.7404 18.8361C14.033 19.1348 14.3822 19.372 14.7676 19.534C15.1531 19.6959 15.5669 19.7793 15.985 19.7793C16.4031 19.7793 16.8169 19.6959 17.2024 19.534C17.5878 19.372 17.937 19.1348 18.2296 18.8361C18.6161 18.4417 19.2493 18.4352 19.6438 18.8217C20.0382 19.2082 20.0447 19.8414 19.6582 20.2359C19.1794 20.7245 18.6079 21.1128 17.9771 21.3778C17.3464 21.6428 16.6691 21.7793 15.985 21.7793C15.3008 21.7793 14.6236 21.6428 13.9928 21.3778C13.3621 21.1128 12.7906 20.7245 12.3118 20.2359C11.9253 19.8414 11.9317 19.2082 12.3262 18.8217Z" fill="#0AB3CA"/>
</svg>
