<svg width="48" height="56" viewBox="0 0 48 56" fill="none" xmlns="http://www.w3.org/2000/svg">
<path d="M40.971 39.5976L24 56L7.02901 39.5976C3.67267 36.3535 1.38702 32.2204 0.461073 27.7208C-0.464871 23.2213 0.0104808 18.5574 1.82702 14.319C3.64356 10.0805 6.7197 6.45789 10.6664 3.90914C14.6132 1.36039 19.2533 0 24 0C28.7467 0 33.3868 1.36039 37.3335 3.90914C41.2803 6.45789 44.3564 10.0805 46.173 14.319C47.9895 18.5574 48.4649 23.2213 47.5389 27.7208C46.613 32.2204 44.3273 36.3535 40.971 39.5976Z" fill="#FFCC48"/>
<path fill-rule="evenodd" clip-rule="evenodd" d="M22.5146 16.4429L22.5872 20.3788H25.2446V15.4043C25.2446 15.3187 25.245 15.2632 25.2497 15.2148C25.254 15.17 25.2608 15.1489 25.2653 15.1388C25.2661 15.1362 25.2813 15.0884 25.437 15.0214L25.5128 14.9887L25.5319 14.9695L25.5328 14.9692L25.5369 14.9678C25.5585 14.9606 25.6019 14.9461 25.6453 14.9263C25.6933 14.9043 25.7637 14.8663 25.8295 14.8002L26.0098 14.619L25.2968 12.2002L24.8808 12.3322C24.2042 12.547 23.6439 12.896 23.2346 13.3935C22.8247 13.8917 22.5884 14.5119 22.5168 15.2317L22.5147 15.253L22.5146 16.4429ZM24.8161 19.9481H24.8161V15.4043C24.8161 15.2484 24.8161 15.1075 24.8662 14.9815C24.8161 15.1075 24.8161 15.2485 24.8161 15.4044V19.9481ZM23.2617 14.1319C23.601 13.4662 24.1901 13.0033 25.0098 12.7431L25.5264 14.4956C25.5264 14.4956 25.5264 14.4956 25.5264 14.4956L25.0098 12.743C24.8689 12.7877 24.7348 12.8385 24.6077 12.8952C23.995 13.1683 23.5426 13.5806 23.2617 14.1319ZM20.495 16.7539L19.0602 14.5426L18.6993 14.7877C16.1962 16.4877 14.5713 19.3454 14.5713 22.6093C14.5713 27.8453 18.8317 32.1275 24.041 32.1275C29.2482 32.1275 33.5106 27.8473 33.5106 22.6742C33.5106 19.5518 32.0251 16.6939 29.6501 14.9888L29.3044 14.7406L27.7728 16.8573L28.1106 17.112C29.8176 18.3988 30.9098 20.4163 30.9098 22.6742C30.9098 26.4608 27.8082 29.5783 24.041 29.5783C20.2116 29.5783 17.1721 26.4633 17.1721 22.6742C17.1721 20.2934 18.3868 18.2153 20.1512 16.9922L20.495 16.7539ZM24.041 31.6968C24.5289 31.6968 25.0081 31.6574 25.4756 31.5817C25.0081 31.6574 24.5289 31.6968 24.041 31.6968C19.0684 31.6968 14.9999 27.6074 14.9999 22.6093L14.9999 22.6093C14.9999 27.6074 19.0684 31.6968 24.041 31.6968ZM19.9079 16.6376C19.0788 17.2123 18.3636 17.9651 17.824 18.8453C18.3636 17.9651 19.0788 17.2123 19.9079 16.6376L19.9079 16.6376ZM29.7497 18.1173C29.3501 17.6116 28.8854 17.1576 28.3678 16.7674L28.3678 16.7674C28.8854 17.1576 29.3501 17.6116 29.7497 18.1173Z" fill="#020818"/>
</svg>
