<svg width="32" height="32" viewBox="0 0 32 32" fill="none" xmlns="http://www.w3.org/2000/svg">
<path d="M9.45484 13.8092C9.18803 13.8092 8.93199 13.8499 8.67715 13.887C8.75971 13.6094 8.84465 13.3271 8.98105 13.0734C9.11744 12.7049 9.33041 12.3855 9.54218 12.0636C9.71925 11.7155 10.0315 11.4798 10.2612 11.1819C10.5017 10.8923 10.8295 10.6997 11.0892 10.4592C11.344 10.208 11.6778 10.0823 11.9434 9.90526C12.221 9.74614 12.4627 9.57026 12.7211 9.48651L13.366 9.2209L13.9331 8.9852L13.3528 6.6665L12.6386 6.83879C12.41 6.89622 12.1313 6.96322 11.8142 7.04338C11.49 7.1032 11.1442 7.26712 10.759 7.41667C10.3785 7.58657 9.9382 7.70142 9.52902 7.97421C9.11744 8.23504 8.64245 8.45279 8.2237 8.80215C7.81811 9.16228 7.32876 9.47455 6.96744 9.93278C6.57262 10.3611 6.18258 10.811 5.87988 11.323C5.52932 11.8112 5.29123 12.3472 5.03998 12.8772C4.81265 13.4072 4.6296 13.9492 4.48004 14.4757C4.19649 15.5309 4.06967 16.5335 4.02061 17.3914C3.97993 18.2504 4.00386 18.9647 4.05411 19.4816C4.07206 19.7256 4.10556 19.9625 4.12949 20.1264L4.1594 20.3274L4.19051 20.3203C4.40331 21.3143 4.89318 22.2278 5.60346 22.955C6.31373 23.6823 7.21539 24.1936 8.20413 24.4298C9.19286 24.666 10.2283 24.6175 11.1906 24.2898C12.1529 23.9622 13.0028 23.3688 13.6419 22.5783C14.281 21.7878 14.6833 20.8325 14.8022 19.8229C14.9211 18.8133 14.7518 17.7907 14.3137 16.8733C13.8757 15.956 13.1869 15.1814 12.3271 14.6392C11.4672 14.0969 10.4714 13.8092 9.45484 13.8092ZM22.6157 13.8092C22.3489 13.8092 22.0928 13.8499 21.838 13.887C21.9205 13.6094 22.0055 13.3271 22.1419 13.0734C22.2783 12.7049 22.4912 12.3855 22.703 12.0636C22.8801 11.7155 23.1923 11.4798 23.4221 11.1819C23.6625 10.8923 23.9904 10.6997 24.25 10.4592C24.5048 10.208 24.8386 10.0823 25.1043 9.90526C25.3818 9.74614 25.6235 9.57026 25.8819 9.48651L26.5268 9.2209L27.0939 8.9852L26.5137 6.6665L25.7994 6.83879C25.5709 6.89622 25.2921 6.96322 24.975 7.04338C24.6508 7.1032 24.305 7.26712 23.9198 7.41667C23.5405 7.58776 23.099 7.70142 22.6898 7.97541C22.2783 8.23623 21.8033 8.45398 21.3845 8.80334C20.9789 9.16347 20.4896 9.47574 20.1283 9.93278C19.7334 10.3611 19.3434 10.811 19.0407 11.323C18.6901 11.8112 18.4521 12.3472 18.2008 12.8772C17.9735 13.4072 17.7904 13.9492 17.6409 14.4757C17.3573 15.5309 17.2305 16.5335 17.1814 17.3914C17.1408 18.2504 17.1647 18.9647 17.2149 19.4816C17.2329 19.7256 17.2664 19.9625 17.2903 20.1264L17.3202 20.3274L17.3513 20.3203C17.5641 21.3143 18.054 22.2278 18.7643 22.955C19.4746 23.6823 20.3762 24.1936 21.365 24.4298C22.3537 24.666 23.3891 24.6175 24.3514 24.2898C25.3137 23.9622 26.1636 23.3688 26.8027 22.5783C27.4419 21.7878 27.8442 20.8325 27.963 19.8229C28.0819 18.8133 27.9126 17.7907 27.4746 16.8733C27.0365 15.956 26.3478 15.1814 25.4879 14.6392C24.628 14.0969 23.6322 13.8092 22.6157 13.8092Z" fill="white"/>
</svg>
